<svg id="Grupo_84476" data-name="Grupo 84476" xmlns="http://www.w3.org/2000/svg" xmlns:xlink="http://www.w3.org/1999/xlink" width="1239.067" height="199.246" viewBox="0 0 1239.067 199.246">
  <defs>
    <clipPath id="clip-path">
      <rect id="Rectángulo_34394" data-name="Rectángulo 34394" width="1238.922" height="138.937" fill="none"/>
    </clipPath>
    <clipPath id="clip-path-2">
      <rect id="Rectángulo_34389" data-name="Rectángulo 34389" width="1239.067" height="99.623" fill="none"/>
    </clipPath>
    <clipPath id="clip-path-3">
      <rect id="Rectángulo_34392" data-name="Rectángulo 34392" width="139.578" height="163.066" fill="none"/>
    </clipPath>
    <clipPath id="clip-path-4">
      <rect id="Rectángulo_34393" data-name="Rectángulo 34393" width="177.216" height="199.245" transform="translate(0 0)" fill="none"/>
    </clipPath>
  </defs>
  <g id="Grupo_81491" data-name="Grupo 81491" transform="translate(0.146 48.515)">
    <g id="Grupo_81490" data-name="Grupo 81490" clip-path="url(#clip-path)">
      <path id="Trazado_122015" data-name="Trazado 122015" d="M77.3,138.874c96.127-.587,190.262-7.775,285.112-14.574,92.355-6.619,184.072-10.279,277.518-10.336,47.479-.03,94.936.626,142.41.724,29.217.061,58.581,1.162,87.714-.437,18.788-1.031,85.392-8.674,51.03-22.069-22.5-8.77-56.266-15.051-83.549-19.082-20.339-3.006-41.269-5.362-60.829-9.438q-30.758-6.408-60.959-13.388c-41.734-9.561-82.664-20.282-126.036-28.094C550.37,15.1,509.515,9.855,468.75,4.985,426.8-.026,387.233-2.751,345.46,4.132c-37.728,6.216-72.587,16.261-111.1,21.417-38.817,5.2-77.995,9.759-116.691,15.172C77.8,46.3,38.1,52.559,0,60.43v78.1q38.64.529,77.3.343" transform="translate(0 0)" fill="#a8c2dd"/>
      <path id="Trazado_122016" data-name="Trazado 122016" d="M1749.417,138.874c-74.269-.587-147-7.775-220.283-14.574-71.356-6.619-142.222-10.279-214.42-10.336-36.684-.03-73.351.626-110.028.724-22.577.061-45.266,1.162-67.774-.437-14.518-1.031-65.975-8.674-39.427-22.069,17.387-8.77,43.473-15.051,64.553-19.082,15.714-3.006,31.886-5.362,47-9.438,15.837-4.272,31.516-8.769,47.1-13.388,32.246-9.561,63.87-20.282,97.378-28.094,30.395-7.085,61.961-12.326,93.456-17.2,32.41-5.011,62.983-7.736,95.26-.853,29.149,6.216,56.081,16.261,85.836,21.417,29.992,5.2,60.262,9.759,90.159,15.172,30.806,5.577,61.476,11.837,90.916,19.709v78.1c-19.9.353-39.814.5-59.725.343" transform="translate(-570.22 0)" fill="#bed1e6"/>
    </g>
  </g>
  <g id="Grupo_81485" data-name="Grupo 81485" transform="translate(0 99.623)">
    <g id="Grupo_81484" data-name="Grupo 81484" clip-path="url(#clip-path-2)">
      <path id="Trazado_121806" data-name="Trazado 121806" d="M955.4,5.088C859.413,4.505,763.476,3.265,667.46,3.049,572.6,2.837,478.358,4.79,383.7,2.408,337.024,1.233,290.621-.375,243.656.079c-45.307.438-90.713,1.335-135.949,2.136C72.7,2.834,36.253,4.011,0,4.306V99.623H1239.067V5.7c-94.4,1.464-190.271-.051-283.665-.616" transform="translate(0 0)" fill="#92b4d4"/>
      <path id="Trazado_121807" data-name="Trazado 121807" d="M1634.453,141.317c35.376-.321,70.567-1.79,105.715-2.886,18.3-.572,36.632-1.1,55.037-1.26q28.173-.24,56.351-.423c19.084-.115,38.148-.238,57.237-.145s38.191.234,57.286.37c31.754.226,63.462.58,95.039,1.536v5.159c-20.01-.393-40.071-.6-60.075-.737-19.022-.128-38.049-.181-57.075-.262-19.078-.083-38.185-.314-57.263-.283q-28.579.046-57.156.057c-18.81-.009-37.632-.1-56.438.059-36.516.317-72.946,1.295-109.5,1.267-16.973-.013-33.977-.214-50.829-.813-14-.5-27.616-1.341-41.233-2.392,20.986.7,41.779.945,62.9.754" transform="translate(-822.052 -117.252)" fill="#6f9cc3"/>
      <path id="Trazado_121808" data-name="Trazado 121808" d="M1480.267,334.695c13.961-.05,27.877,0,41.831.134,17.817.176,35.614.481,53.431.675,18.257.2,36.76.468,55.013.163,13.773-.229,27.391-.471,41.109-.9,18.715-.587,37.371-1.4,55.971-2.232,31.475-1.409,63.052-2.779,94.877-3.285,37.58-.489,75.092-.045,112.485,1.1q30.515.934,60.611,2.692v4.13c-14.445-.552-28.891-1.059-43.422-1.443-37.451-.991-75.021-1.031-112.582-.9-13.318.219-26.559.472-39.834.835-18.995.519-37.905,1.316-56.807,2.062-31.89,1.259-64.132,2.655-96.382,2.714-18.151.033-36.216-.129-54.3-.592-18.492-.5-36.892-1.163-55.311-1.848-17.079-.637-34.15-1.3-51.276-1.819-13.115-.4-26.246-.667-39.39-.964,11.323-.238,22.623-.484,33.978-.523" transform="translate(-756.53 -282.51)" fill="#6f9cc3"/>
      <path id="Trazado_121809" data-name="Trazado 121809" d="M803.481,220.479c-13.9-.794-27.706-1.545-41.818-1.938q-26.8-.743-53.7-.561c-37.417.24-74.606,1.369-111.878,2.279-74.937,1.832-150.409,2.629-225.444.763-23.7-.59-47.47-1.474-70.839-2.765-20.3-1.122-40.217-2.587-60.194-4.1,13.033,1.775,26.148,3.444,39.707,4.858,16.64,1.734,33.708,3.082,50.907,4.258,35.434,2.42,71.778,3.7,108.1,4.255,37.61.578,75.3.343,112.85-.446,37.412-.786,74.477-2.351,111.588-3.876q37.744-1.55,75.668-2.454c21.692-.525,43.328-.349,65.056-.268" transform="translate(-125.333 -183.863)" fill="#6f9cc3"/>
      <path id="Trazado_121810" data-name="Trazado 121810" d="M610.7,492.048c-6.517-.155-12.856-.363-19.289-.714-8.482-.464-16.809-1.254-24.994-2.038-16.191-1.552-32.121-3.317-48.336-4.854-34.1-3.235-68.885-6.044-104.708-7.071-27.248-.78-54.931-.133-81.819,1.246-17.163.88-34.181,1.958-51.242,2.985-8.549.515-17.085,1.092-25.688,1.525-5.416.273-11.047.731-16.536.849l.212-.007c-14.8.543-29.576,1.081-44.5,1.241-17.1.182-34.4.021-51.455-.359-26.607-.59-52.983-1.659-79.5-2.5,30.505,2.748,61.6,5.172,93.343,6.366,31.2,1.174,62.482,1.338,93.694.115,26.648-1.046,52.9-2.747,79.362-4.112,13.147-.678,26.309-1.189,39.584-1.593,8.749-.266,17.538-.319,26.326-.4h-.276c7.774-.056,15.729.126,23.471.314,8.834.214,17.739.443,26.489.864q26.967,1.294,53.581,3,26.1,1.715,52.138,3.491c8.475.569,16.977,1.092,25.584,1.468,8.372.366,17.365.674,25.828.44q4.365-.122,8.724-.257" transform="translate(-32.875 -409.563)" fill="#6f9cc3"/>
      <path id="Trazado_121811" data-name="Trazado 121811" d="M0,344.536l.63.024c36.851,1.371,74.485,1.693,111.589,1.173,37.691-.528,75.118-1.074,112.715.222,32.918,1.134,64.831,3.69,94.226,8.151q-5.245-.381-10.474-.776c-34.7-2.264-69.773-3.162-105.32-3.107-37.831.057-75.42,1.5-113.236,1.53-30.129.027-60.5-.671-90.13-2.381Z" transform="translate(0 -295.804)" fill="#6f9cc3"/>
      <path id="Trazado_121812" data-name="Trazado 121812" d="M2338.223,247.705c31.856-1.535,64.52-1.641,96.849-1.763v5.867c-15.764.209-31.551.241-47.177.192-33.815-.107-68.013-.917-101.442.933,15.606-2.919,33.578-4.351,51.77-5.228" transform="translate(-1196.005 -211.155)" fill="#6f9cc3"/>
      <path id="Trazado_121813" data-name="Trazado 121813" d="M408.168,620.9c33.429-1.85,67.627-1.04,101.44-.933,36.937.117,74.779-.155,111.031-2.39,17.672-1.088,34.7-2.589,51.257-4.689-15.295.117-30.564.477-45.86.612q-27.246.24-54.5.347c-37.1.184-74.887.055-111.595,1.825-18.2.877-36.166,2.308-51.774,5.227" transform="translate(-213.506 -526.202)" fill="#6f9cc3"/>
      <path id="Trazado_121814" data-name="Trazado 121814" d="M426.665,90.526c-35.376-.321-70.567-1.79-105.717-2.887-18.3-.572-36.63-1.1-55.037-1.26q-28.171-.24-56.349-.424c-19.084-.115-38.15-.238-57.235-.144s-38.192.234-57.288.37c-31.753.226-63.464.581-95.039,1.537v5.158c20.01-.392,40.071-.6,60.075-.737,19.021-.127,38.051-.18,57.074-.262,19.08-.083,38.187-.314,57.267-.283q28.576.046,57.154.057c18.812-.008,37.632-.1,56.438.059,36.516.317,72.946,1.294,109.5,1.267,16.973-.013,33.977-.214,50.829-.813,14-.5,27.616-1.341,41.233-2.392-20.988.694-41.779.945-62.9.754" transform="translate(0 -73.645)" fill="#6f9cc3"/>
      <path id="Trazado_121815" data-name="Trazado 121815" d="M515.329,430.853c-13.961-.05-27.877,0-41.831.134-17.817.176-35.614.48-53.433.675-18.255.2-36.758.468-55.011.163-13.773-.229-27.391-.471-41.11-.9-18.715-.588-37.371-1.4-55.972-2.232-31.473-1.409-63.052-2.78-94.875-3.285-37.582-.488-75.092-.045-112.487,1.1Q30.1,427.443,0,429.2v4.13c14.445-.551,28.889-1.059,43.424-1.443,37.447-.991,75.019-1.031,112.58-.9,13.318.218,26.557.472,39.834.835,18.995.519,37.907,1.315,56.805,2.062,31.89,1.258,64.136,2.655,96.382,2.714,18.152.033,36.218-.129,54.305-.592,18.492-.5,36.892-1.163,55.311-1.848,17.079-.636,34.15-1.3,51.274-1.819,13.117-.4,26.248-.667,39.392-.964-11.323-.237-22.623-.483-33.978-.523" transform="translate(0 -365.068)" fill="#a8c2dd"/>
      <path id="Trazado_121816" data-name="Trazado 121816" d="M161.462,621.733q12.533-.842,25.088-1.6c36.59-2.218,73.557-4.268,110.788-5.312,37.956-1.064,76.117-1.1,114.155-.395,31.091.573,61.94,1.566,92.566,3.227,22.984,1.245,45.8,2.755,68.721,4.084h52.8c-23.441-1.433-46.555-3.268-69.66-5.093-29.934-2.363-60.134-4.784-90.917-6.03-18.626-.737-37.265-1.545-56.038-1.9-19.025-.357-38.049-.6-57.12-.587-74.648.062-148.837,4.779-220.039,10.975q-13.916,1.211-27.7,2.633Z" transform="translate(-54.458 -522.11)" fill="#a8c2dd"/>
      <path id="Trazado_121817" data-name="Trazado 121817" d="M1185.672,188.4c13.9-.8,27.706-1.545,41.818-1.938q26.8-.743,53.7-.561c37.417.24,74.606,1.368,111.876,2.279,74.939,1.831,150.409,2.629,225.448.763,23.7-.59,47.468-1.474,70.837-2.765,20.3-1.123,40.217-2.587,60.2-4.1-13.035,1.775-26.151,3.444-39.711,4.857-16.636,1.734-33.707,3.082-50.905,4.258-35.434,2.419-71.778,3.7-108.1,4.254-37.609.579-75.3.343-112.849-.445-37.412-.786-74.477-2.351-111.588-3.876q-37.744-1.551-75.668-2.454c-21.692-.525-43.328-.349-65.056-.268" transform="translate(-620.205 -156.322)" fill="#a8c2dd"/>
      <path id="Trazado_121818" data-name="Trazado 121818" d="M1386.5,395.889c6.516-.155,12.856-.363,19.287-.715,8.484-.464,16.811-1.254,25-2.038,16.189-1.551,32.121-3.317,48.336-4.854,34.1-3.235,68.885-6.044,104.708-7.07,27.246-.78,54.931-.134,81.817,1.245,17.165.881,34.183,1.958,51.244,2.985,8.549.515,17.083,1.092,25.688,1.526,5.414.273,11.047.731,16.536.848l-.212-.007c14.8.543,29.574,1.08,44.5,1.24,17.1.182,34.394.021,51.455-.359,26.6-.59,52.983-1.659,79.5-2.5-30.505,2.748-61.606,5.172-93.345,6.366-31.2,1.174-62.478,1.338-93.691.115-26.648-1.046-52.9-2.747-79.364-4.112-13.147-.679-26.307-1.19-39.582-1.594-8.75-.267-17.538-.319-26.326-.4h.276c-7.774-.056-15.729.126-23.471.314-8.834.214-17.74.443-26.49.864q-26.967,1.294-53.581,3-26.1,1.714-52.138,3.491c-8.475.568-16.978,1.091-25.584,1.467-8.372.366-17.365.674-25.828.44q-4.367-.122-8.724-.256" transform="translate(-725.255 -327.005)" fill="#a8c2dd"/>
      <path id="Trazado_121819" data-name="Trazado 121819" d="M2371.148,56.106c-37.263.428-74.572.23-111.829.8-32.086.492-67.391,1.307-95.072,6.485,18.311-1.013,36.717-1.216,55.328-1.183,37.246.066,74.367.555,111.566-.32,13.448-.317,26.82-.809,40.007-1.534Z" transform="translate(-1132.081 -48.17)" fill="#a8c2dd"/>
      <path id="Trazado_121820" data-name="Trazado 121820" d="M96.847,247.705C64.993,246.17,32.328,246.064,0,245.942v5.867c15.762.209,31.551.241,47.179.192,33.815-.107,68.011-.917,101.44.933-15.606-2.919-33.578-4.351-51.772-5.228" transform="translate(0 -211.155)" fill="#a8c2dd"/>
      <path id="Trazado_121821" data-name="Trazado 121821" d="M1172.905,349.009c-33.429-1.85-67.627-1.04-101.442-.933-36.935.117-74.775-.155-111.029-2.39-17.672-1.088-34.7-2.589-51.255-4.689,15.293.117,30.562.477,45.857.612q27.249.241,54.5.347c37.1.185,74.887.055,111.595,1.825,18.194.877,36.167,2.308,51.774,5.228" transform="translate(-475.577 -292.765)" fill="#a8c2dd"/>
      <path id="Trazado_121822" data-name="Trazado 121822" d="M2193.681,101.1c28.954,0,56.546.163,81.7.457v11.011c-25.157.3-52.749.457-81.7.457-117.366,0-212.509-2.671-212.509-5.962s95.143-5.964,212.509-5.964" transform="translate(-1036.318 -86.802)" fill="#6f9cc3"/>
    </g>
  </g>
  <g id="Grupo_81487" data-name="Grupo 81487" transform="translate(1099.489)">
    <g id="Grupo_81486" data-name="Grupo 81486" clip-path="url(#clip-path-3)">
      <path id="Trazado_121823" data-name="Trazado 121823" d="M472.543,115.447a4.388,4.388,0,0,0-3.463.269,6.91,6.91,0,0,0-12.736,1.8,4.513,4.513,0,0,0-6.362,1.813,3.152,3.152,0,0,0-.5-.048,2.879,2.879,0,0,0-2.88,2.878l.008.08a3.87,3.87,0,1,0,5.987,4.835,4.517,4.517,0,0,0,3.551,1.723l.12-.006a6.906,6.906,0,0,0,11.571-.249,4.489,4.489,0,0,0,4.7-1.1Z" transform="translate(-332.965 -84.321)" fill="#dff1fa"/>
      <path id="Trazado_121824" data-name="Trazado 121824" d="M417.119,56.362l15.094-12.92.287-.055L453.011,50.4v.621L432.469,44,417.5,56.809l-.414-.029Z" transform="translate(-313.432 -32.604)" fill="#506176"/>
      <path id="Trazado_121825" data-name="Trazado 121825" d="M363.329,228.585c6.824,0,13.335-3.637,13.43-3.69l.143-.2-.05-.235c-.082-.108-7.828-10.646-1.287-16.16l.037-.414-.417-.036c-6.341,5.346-.211,14.93,1,16.684-1.981,1.035-13.724,6.753-21.248.781-8.152-6.473-3.522-14.217-3.473-14.3a.295.295,0,0,0-.5-.309c-.05.082-4.947,8.272,3.607,15.067a13.8,13.8,0,0,0,8.764,2.8" transform="translate(-262.653 -156.198)" fill="#506176"/>
      <path id="Trazado_121826" data-name="Trazado 121826" d="M333.015,247.369l35.968-10.944.095-.013,20.6.677v.588L369.108,237l-35.919,10.932-.087.014-.282-.21a.3.3,0,0,1,.2-.369" transform="translate(-250.096 -177.658)" fill="#506176"/>
      <path id="Trazado_121827" data-name="Trazado 121827" d="M532.305,423.855v7.206a41.5,41.5,0,0,0-9.7,4.539s3.678-4.689,9.7-11.745" transform="translate(-392.727 -318.516)" fill="#f8eed3"/>
      <path id="Trazado_121828" data-name="Trazado 121828" d="M532.305,423.855v7.206a41.5,41.5,0,0,0-9.7,4.539s3.678-4.689,9.7-11.745" transform="translate(-392.727 -318.516)" fill="#ebd2b3"/>
      <path id="Trazado_121829" data-name="Trazado 121829" d="M226.73,480.134l.09-.015a.293.293,0,0,0,.189-.372c-2.95-9.211-16.773-17.773-17.359-18.134a.3.3,0,1,0-.309.5c.143.085,14.221,8.807,17.108,17.81Z" transform="translate(-157.209 -346.858)" fill="#506176"/>
      <path id="Trazado_121830" data-name="Trazado 121830" d="M118.993,527.251c6.087,0,9.254-3.17,9.3-3.214l-.007-.419-.416.008c-.067.066-6.782,6.741-19.634.084a.295.295,0,1,0-.271.523,23.994,23.994,0,0,0,11.027,3.018" transform="translate(-81.013 -393.485)" fill="#506176"/>
      <path id="Trazado_121831" data-name="Trazado 121831" d="M33,520.87a42.829,42.829,0,0,0,14.966-2.8c10.526-3.918,18.006-.558,18.08-.519a.3.3,0,0,0,.4-.146.3.3,0,0,0-.144-.391c-.076-.036-7.766-3.508-18.539.5-13.668,5.087-23.416,1.608-23.512,1.574a.294.294,0,1,0-.2.551A28.5,28.5,0,0,0,33,520.87" transform="translate(-17.922 -387.447)" fill="#506176"/>
      <path id="Trazado_121832" data-name="Trazado 121832" d="M124.853,414.212l.233-.115-.05-.414-58.406-45.63-.414.052.05.412,58.406,45.632Z" transform="translate(-49.759 -276.583)" fill="#506176"/>
      <path id="Trazado_121833" data-name="Trazado 121833" d="M47.8,278.275l.28-.208a.3.3,0,0,0-.193-.371L27.211,271.26l56.868-41.047,17.7,5.6a.3.3,0,0,0,.368-.193.29.29,0,0,0-.192-.371L84.115,229.6l-.261.045L26.388,271.13l-.118.284.2.235,21.239,6.611Z" transform="translate(-19.741 -172.542)" fill="#506176"/>
      <path id="Trazado_121834" data-name="Trazado 121834" d="M26.545,407.056a.292.292,0,0,0,.294-.295V396.752a.295.295,0,1,0-.589,0v10.009a.3.3,0,0,0,.3.295" transform="translate(-19.726 -297.927)" fill="#506176"/>
      <path id="Trazado_121835" data-name="Trazado 121835" d="M537.759,181.078l.417.017,5.5,5.971v.872l-5.935-6.445Z" transform="translate(-404.1 -136.075)" fill="#506176"/>
      <path id="Trazado_121836" data-name="Trazado 121836" d="M326.167,480.907a64.392,64.392,0,0,0,9.74-.681.294.294,0,1,0-.1-.58c-.369.065-37.059,6.124-45.723-19.332a.294.294,0,1,0-.556.189c5.964,17.532,24.888,20.4,36.638,20.4" transform="translate(-217.562 -345.763)" fill="#506176"/>
      <path id="Trazado_121837" data-name="Trazado 121837" d="M348.067,502.192a67.821,67.821,0,0,0,9.866-.666.294.294,0,0,0,.245-.339.29.29,0,0,0-.341-.242c-.259.042-26.085,4.138-38.507-8.6l-.417-.006-.008.419c7.684,7.874,20.351,9.43,29.161,9.43" transform="translate(-239.65 -369.983)" fill="#506176"/>
      <path id="Trazado_121838" data-name="Trazado 121838" d="M548.281,339.949a.3.3,0,0,1,.388.147l2.8,6.234v1.442l-3.334-7.434a.293.293,0,0,1,.15-.388" transform="translate(-411.887 -255.444)" fill="#506176"/>
      <path id="Trazado_121839" data-name="Trazado 121839" d="M515.885,434.715l.049,0a.293.293,0,0,0,.242-.341l-7.224-42.456a.3.3,0,0,0-.34-.241.3.3,0,0,0-.24.341l7.223,42.456a.3.3,0,0,0,.289.247" transform="translate(-382.026 -294.329)" fill="#506176"/>
      <path id="Trazado_121840" data-name="Trazado 121840" d="M189.565,423.478a5.859,5.859,0,0,0-1.936,4.256c0,2.67,3.038,6.668,3.038,6.668s-8.287-4.818-8.523-8.714,7.421-2.211,7.421-2.211" transform="translate(-136.872 -317.961)" fill="#d7bea8"/>
      <path id="Trazado_121841" data-name="Trazado 121841" d="M9.562,503.192s-4.492-.083-4.492,2.591,4.492,5.1,4.492,5.1-8.38-1.2-8.619-5.1,8.619-2.591,8.619-2.591" transform="translate(-0.705 -377.979)" fill="#d7bea8"/>
      <path id="Trazado_121842" data-name="Trazado 121842" d="M410.008,44.366v-5.28s-1.426.467-1.426,2.912,1.426,2.368,1.426,2.368" transform="translate(-307.039 -29.372)" fill="#901d10"/>
      <path id="Trazado_121843" data-name="Trazado 121843" d="M375.461,66.364V56.891s-4.891.02-4.891,4.4,4.891,5.074,4.891,5.074" transform="translate(-278.474 -42.752)" fill="#901d10"/>
      <path id="Trazado_121844" data-name="Trazado 121844" d="M410.739,1.545a20.553,20.553,0,0,1,5.45-.036,52.565,52.565,0,0,1,9.528,1.507V13.5a52.584,52.584,0,0,0-9.528-1.5,20.489,20.489,0,0,0-5.45.038c-.95.151-2.049.4-2.157,1.3V2.85c.1-.9,1.2-1.152,2.157-1.3" transform="translate(-307.039 -1.011)" fill="#da3119"/>
      <path id="Trazado_121845" data-name="Trazado 121845" d="M343.09,60.332l0,3.316v.36c.171,1.087,1.762,2.3,2.895,3.028.691.443,1.76.78,1.951,1.63.211.957-.642,1.447-1.491,1.6-3.976.738-8.365,1.168-12.457,1.592V61.38c2.971-.307,6.091-.618,9.1-1.048" transform="translate(-250.986 -45.338)" fill="#da3119"/>
      <path id="Trazado_121846" data-name="Trazado 121846" d="M372.25,24.19a16.648,16.648,0,0,1,4.4-.481,16.348,16.348,0,0,0,3.374-.163V30.32l.034.2c.253,1.065,2.077,1.669,1.127,2.855-.86,1.075-3.272.774-4.536.812a16.858,16.858,0,0,0-4.4.484c-1.1.346-1.576.816-1.659,1.33l0-3.316,0-6.879v-.237c.059-.537.534-1.025,1.668-1.382" transform="translate(-278.483 -17.694)" fill="#da3119"/>
      <path id="Trazado_121847" data-name="Trazado 121847" d="M212.921,256.8v-3.348s-.9.3-.9,1.849.9,1.5.9,1.5" transform="translate(-159.327 -190.466)" fill="#901d10"/>
      <path id="Trazado_121848" data-name="Trazado 121848" d="M191.018,270.75v-6s-3.1.014-3.1,2.791,3.1,3.213,3.1,3.213" transform="translate(-141.216 -198.95)" fill="#901d10"/>
      <path id="Trazado_121849" data-name="Trazado 121849" d="M213.377,229.674a13.085,13.085,0,0,1,3.453-.028,33.5,33.5,0,0,1,6.039.957v6.645a33.483,33.483,0,0,0-6.039-.956,13.138,13.138,0,0,0-3.453.025c-.6.093-1.3.255-1.366.821l0-4.1V230.5c.067-.568.767-.725,1.369-.821" transform="translate(-159.319 -172.497)" fill="#da3119"/>
      <path id="Trazado_121850" data-name="Trazado 121850" d="M170.5,266.929v2.332c.112.688,1.118,1.456,1.835,1.92.44.279,1.117.492,1.238,1.031.137.608-.408.919-.945,1.017-2.52.467-5.3.741-7.9,1v-6.642c1.883-.194,3.859-.389,5.769-.663" transform="translate(-123.79 -200.59)" fill="#da3119"/>
      <path id="Trazado_121851" data-name="Trazado 121851" d="M188.98,244.027a10.541,10.541,0,0,1,2.79-.309,10.586,10.586,0,0,0,2.137-.1l0,4.1v.2l.017.127c.162.675,1.319,1.057.717,1.81-.546.678-2.074.49-2.873.512a10.87,10.87,0,0,0-2.79.309c-.7.219-1,.515-1.055.845v-2.1l0-4.363V244.9c.038-.339.34-.649,1.059-.874" transform="translate(-141.218 -183.072)" fill="#da3119"/>
      <path id="Trazado_121852" data-name="Trazado 121852" d="M263.547,309.892l-8.439-80.659a.579.579,0,0,0-.646-.493.56.56,0,0,0-.529.584l5.712,80.87a1.92,1.92,0,0,0,2.082,1.712,1.88,1.88,0,0,0,1.824-1.953Z" transform="translate(-190.823 -171.89)" fill="#62321b"/>
      <path id="Trazado_121853" data-name="Trazado 121853" d="M88.7,433.9l-63.97-36.5a.606.606,0,0,0-.808.185.532.532,0,0,0,.177.749L86.606,437a2.034,2.034,0,0,0,2.712-.52,1.77,1.77,0,0,0-.557-2.546Z" transform="translate(-17.913 -298.573)" fill="#62321b"/>
      <path id="Trazado_121854" data-name="Trazado 121854" d="M472.031,148.922,471.339.552a.592.592,0,0,0-1.18,0l-2.046,148.358a1.963,1.963,0,0,0,3.918.048Z" transform="translate(-351.774 0.001)" fill="#62321b"/>
      <path id="Trazado_121855" data-name="Trazado 121855" d="M467.551,557.787l-1.544-12.773c-.16-1.306-1.417-.915-2.811-.77-1.192.126-2.1-.318-2.238.753L459.3,557.756a3.959,3.959,0,0,0,3.621,4.341,4.108,4.108,0,0,0,4.63-3.4,3.947,3.947,0,0,0,0-.914" transform="translate(-345.126 -408.858)" fill="#8b3f1c"/>
      <path id="Trazado_121856" data-name="Trazado 121856" d="M455.371,203.676l5.528-1.7,5.526,1.7s.665,8.539-5.526,8.539-5.528-8.539-5.528-8.539" transform="translate(-342.184 -151.783)" fill="#8b3f1c"/>
      <path id="Trazado_121857" data-name="Trazado 121857" d="M451.868,203.529a1.25,1.25,0,0,0,.444-.078,14.531,14.531,0,0,1,10.116-.023,1.209,1.209,0,0,0,1.564-.539,1.081,1.081,0,0,0-.571-1.472,16.992,16.992,0,0,0-12-.016,1.08,1.08,0,0,0-.648,1.439,1.178,1.178,0,0,0,1.092.69" transform="translate(-338.681 -150.531)" fill="#a86435"/>
      <path id="Trazado_121858" data-name="Trazado 121858" d="M29.276,423.179s-15.155,12.147,0,26.65c0,0-25.081-10.679-29.038-4.017,0,0-2.283-14.891,7.3-20.213,0,0,4.054-1.591,21.738-2.42" transform="translate(0 -318.008)" fill="#f8eed3"/>
      <path id="Trazado_121859" data-name="Trazado 121859" d="M6.32,440.711c3.354.591,7.916,2.011,11.07.163,2.665-1.56,1.138-6.052,1.314-8.4a17.7,17.7,0,0,1,2.946-8.835c2.207-.166,4.734-.32,7.633-.458,0,0-15.155,12.147,0,26.65,0,0-25.081-10.679-29.037-4.017a30.57,30.57,0,0,1-.153-6.139c2.08.313,4.153.672,6.227,1.038" transform="translate(-0.008 -318.008)" fill="#ebd2b3"/>
      <path id="Trazado_121860" data-name="Trazado 121860" d="M317.907,255.475l60.176-6.331v1.111l-60.043,6.319-.068,0a.579.579,0,0,1-.586-.489.564.564,0,0,1,.52-.614" transform="translate(-238.505 -187.225)" fill="#8b3f1c"/>
      <path id="Trazado_121861" data-name="Trazado 121861" d="M211.6,526.77l.86.7,1.2.985,4.717,3.842c1.055.113,2.136.214,3.232.3.388.026.783.054,1.177.085,3.075.208,6.241.32,9.335.368.4.007.79.012,1.178.012,3.291.042,6.464,0,9.329-.064l1.181-.036c4.067-.117,7.39-.287,9.316-.4.483-.025.884-.054,1.178-.071.413-.025.629-.043.629-.043l1.557-2.332.7-1.038,4.229-6.311,2.075-.322,1.174-.179,6.89-1.061v32c-31.234.209-75.588-3.329-75.588-3.329-5.16-5.67-6.632-17.149-6.632-17.149-3.095.136-3.538-2.765-3.834-4.563s-1.031-3.735-4.419-4.151-5.456-4.839-5.456-4.839c12.678,1.52,35.966,7.606,35.966,7.606" transform="translate(-131.984 -390.138)" fill="#8b3f1c"/>
      <path id="Trazado_121862" data-name="Trazado 121862" d="M254.181,617.615c12.361-.225,24.516,1.194,36.784,2.392a154.011,154.011,0,0,0,18.394,1.012,122.027,122.027,0,0,0,12.8-1.077v7.218c-31.235.209-75.589-3.329-75.589-3.329a21.266,21.266,0,0,1-3.608-5.974c3.785-.042,7.55-.176,11.224-.244" transform="translate(-182.576 -464.104)" fill="#773517"/>
      <path id="Trazado_121863" data-name="Trazado 121863" d="M227.942,528.183c.725.15,1.455.3,2.177.455.028,1.972.424,17.713,6.535,28.11-.892-.066-1.376-.1-1.376-.1-5.16-5.67-6.632-17.149-6.632-17.149h0a83.012,83.012,0,0,1-.7-11.312" transform="translate(-171.288 -396.916)" fill="#a86435"/>
      <path id="Trazado_121864" data-name="Trazado 121864" d="M173.074,515.825c12.593,1.515,35.856,7.567,36.093,7.633l.34.171,6.574,5.364c14.207,1.456,32.6.34,35.671.138L258,519.8a.9.9,0,0,1,.609-.381l10.28-1.583v1.685l-9.6,1.477-6.273,9.367a.909.909,0,0,1-.679.384c-.137.008-8.848.632-19.226.632a172.559,172.559,0,0,1-17.5-.775.864.864,0,0,1-.48-.2L208.5,525c-2.263-.584-23.787-6.107-35.651-7.534a.838.838,0,0,1-.765-.927.874.874,0,0,1,.99-.72" transform="translate(-129.311 -387.623)" fill="#a86435"/>
      <path id="Trazado_121865" data-name="Trazado 121865" d="M242.076,601.375a.6.6,0,0,1,.721-.4c6.725,1.613,13.355,2.839,19.828,3.724.394.062.784.113,1.179.161q3.969.527,7.847.89c.4.039.788.078,1.178.113q4.743.421,9.324.635c.393.017.789.032,1.178.046,3.178.141,6.292.2,9.329.2.4,0,.79,0,1.177,0,3.2,0,6.316-.083,9.328-.214.4-.015.789-.032,1.181-.054,3.224-.15,6.338-.363,9.322-.627.393-.031.784-.073,1.174-.106,2.3-.209,4.5-.452,6.636-.71v1.111c-5.251.628-10.976,1.149-17.138,1.438-.39.022-.786.039-1.179.053-3.021.135-6.133.214-9.328.215-.284.008-.559.008-.844.008h-.337c-3.037-.008-6.151-.067-9.329-.2l-1.178-.056c-3.048-.147-6.162-.349-9.322-.631-.394-.033-.783-.075-1.178-.112-2.583-.243-5.2-.531-7.842-.88-.4-.049-.785-.1-1.179-.159A203.6,203.6,0,0,1,242.5,602.05a.556.556,0,0,1-.424-.675" transform="translate(-181.9 -451.604)" fill="#a86435"/>
      <path id="Trazado_121866" data-name="Trazado 121866" d="M236.746,559.62a.606.606,0,0,1,.739-.374c30.722,8.892,60.189,7.893,79.983,5.36v1.118a218.942,218.942,0,0,1-27.569,1.76,190.419,190.419,0,0,1-52.758-7.176.551.551,0,0,1-.394-.688" transform="translate(-177.889 -420.242)" fill="#a86435"/>
      <path id="Trazado_121867" data-name="Trazado 121867" d="M500.581,552.829c.144-.015.284-.033.42-.053,5.126-.655,9.9-1.355,14.367-2.069v1.126q-6.808,1.088-14.633,2.093l-.076.007-.361-.119a.542.542,0,0,1,.283-.984" transform="translate(-375.79 -413.842)" fill="#a86435"/>
      <path id="Trazado_121868" data-name="Trazado 121868" d="M529.426,553.681a.567.567,0,0,0,.579.563h.01a.574.574,0,0,0,.592-.54c.117-6.4-.093-16.143-.254-22.088l-1.174.179c.157,5.943.364,15.55.247,21.885" transform="translate(-397.665 -399.497)" fill="#a86435"/>
      <path id="Trazado_121869" data-name="Trazado 121869" d="M487.574,585.341c0,.376,0,.747,0,1.1.392-.014.788-.031,1.179-.053.006-.358.006-.731.006-1.106.024-3.878-.042-8.421-.124-12.525-.294.017-.694.046-1.177.071.079,4.1.146,8.642.121,12.509" transform="translate(-366.308 -430.415)" fill="#a86435"/>
      <path id="Trazado_121870" data-name="Trazado 121870" d="M445.331,587c0,.378-.008.751-.008,1.11h.337c.285,0,.56,0,.844-.008,0-.357,0-.731,0-1.107.023-3.787-.037-8.246-.11-12.317-.39.013-.781.024-1.181.036.076,4.064.13,8.509.113,12.287" transform="translate(-334.571 -431.854)" fill="#a86435"/>
      <path id="Trazado_121871" data-name="Trazado 121871" d="M403.054,587.014c0,.375,0,.748-.008,1.106l1.177.056c.008-.366.008-.737.008-1.116.017-3.713-.037-8.046-.113-12.018-.387,0-.781,0-1.177-.012.076,3.955.129,8.276.113,11.984" transform="translate(-302.8 -432.12)" fill="#a86435"/>
      <path id="Trazado_121872" data-name="Trazado 121872" d="M360.764,584.9c0,.377,0,.748,0,1.111.4.037.784.079,1.178.112.006-.367.006-.738.006-1.11.014-3.68-.047-7.884-.124-11.717-.394-.03-.789-.058-1.177-.084.074,3.817.13,8.009.123,11.688" transform="translate(-271.013 -430.753)" fill="#a86435"/>
      <path id="Trazado_121873" data-name="Trazado 121873" d="M323.812,552.6c.113,4.507.245,10.543.249,15.76v1.122c.394.055.784.11,1.18.159v-1.12c-.009-4.881-.116-10.51-.225-14.936Z" transform="translate(-243.336 -415.263)" fill="#a86435"/>
      <path id="Trazado_121874" data-name="Trazado 121874" d="M210.337,505.03a.578.578,0,0,0,.571-.427.547.547,0,0,0-.438-.664c-.192-.045-19.81-4.423-36.509-7.294a.584.584,0,0,0-.686.444.558.558,0,0,0,.472.645c16.668,2.865,36.256,7.237,36.452,7.279Z" transform="translate(-130.204 -373.209)" fill="#a86435"/>
      <path id="Trazado_121875" data-name="Trazado 121875" d="M316.991,533.335l.247-5.181-.589-.025-.246,5.181Z" transform="translate(-237.768 -396.875)" fill="#a86435"/>
      <path id="Trazado_121876" data-name="Trazado 121876" d="M273.8,522.885l.587-.011-.1-4.656-.59.012Z" transform="translate(-205.677 -389.428)" fill="#a86435"/>
      <rect id="Rectángulo_34390" data-name="Rectángulo 34390" width="0.589" height="4.416" transform="translate(60.713 127.624)" fill="#a86435"/>
      <rect id="Rectángulo_34391" data-name="Rectángulo 34391" width="0.587" height="4.655" transform="translate(51.709 125.477)" fill="#a86435"/>
      <path id="Trazado_121877" data-name="Trazado 121877" d="M177.016,504.159l.05-4.655-.592,0-.048,4.652Z" transform="translate(-132.579 -375.361)" fill="#a86435"/>
      <path id="Trazado_121878" data-name="Trazado 121878" d="M308.259,256.847c20.693-3.767,42.66-6.1,58.386-7.437v62.141c-26.176-13.4-60.109-1.555-60.109-1.555-10.762-17.788,1.723-53.149,1.723-53.149" transform="translate(-227.067 -187.425)" fill="#f8eed3"/>
      <path id="Trazado_121879" data-name="Trazado 121879" d="M328.745,300.061a44.578,44.578,0,0,0,12.659-2.78c2.9-1.118,5.992-2.95,7.188-5.816a10.978,10.978,0,0,0,.414-5.949c-.309-2.41-.688-4.816-.935-7.236-.535-5.224-.326-10.466,1.846-15.379,2.1-4.734,5.886-7.458,10.105-10.475,1.1-.783,2.162-1.746,3.254-2.693,1.313-.119,2.58-.226,3.82-.336v62.144c-26.176-13.4-60.109-1.555-60.109-1.555-2.586-4.27-3.828-9.562-4.225-15.129,8.071,3.573,17.043,5.863,25.983,5.2" transform="translate(-227.518 -187.416)" fill="#ebd2b3"/>
      <path id="Trazado_121880" data-name="Trazado 121880" d="M181.847,297.93c3.683-5.669,26.977,6.918,26.977,6.918-7.513-28.911,12.528-51.722,12.528-51.722a56.1,56.1,0,0,0-23.474,5.114,20.9,20.9,0,0,0-3.78,2.214,23.084,23.084,0,0,0-5.2,5.453,34.055,34.055,0,0,0-4.095,8.3c-.391,1.139-.74,2.289-1.038,3.442a67.681,67.681,0,0,0-2,15.212c-.007.216-.007.425-.01.63-.036,2.736.093,4.439.093,4.439" transform="translate(-136.579 -190.206)" fill="#f8eed3"/>
      <path id="Trazado_121881" data-name="Trazado 121881" d="M181.763,292.859c.019-.724.046-1.509.09-2.344,3.527,1.886,7.294,3.313,11.215,3.254,2.021-.027,4.411-.5,5.488-2.308,1.159-1.942.71-3.926.205-5.983A29.823,29.823,0,0,1,200.2,265.9c2-4.462,5.115-9.068,9.663-11.565a48.8,48.8,0,0,1,11.493-1.206s-20.041,22.812-12.528,51.722c0,0-23.294-12.587-26.977-6.918,0,0-.129-1.7-.093-4.439,0-.2,0-.414.01-.63" transform="translate(-136.579 -190.205)" fill="#ebd2b3"/>
      <path id="Trazado_121882" data-name="Trazado 121882" d="M367.522,80.626c7.884-7.229,32.528-6.967,37.312-6.845v29.553c-13.369-1.773-38.116-3.163-51.854,7.9,0,0,5.8-22.587,14.542-30.612" transform="translate(-265.255 -55.415)" fill="#f8eed3"/>
      <path id="Trazado_121883" data-name="Trazado 121883" d="M356.2,101.022c5.826-1.669,11.679-3.062,17.957-3.025,3.553.023,7.108.2,10.663.119a19.263,19.263,0,0,0,6.7-.979c6.874-2.78-.343-9.481-.866-13.689a25.971,25.971,0,0,1,.359-9.326c6.308-.463,11.812-.388,13.818-.338v29.553c-13.369-1.773-38.116-3.163-51.853,7.9,0,0,1.158-4.515,3.219-10.219" transform="translate(-265.255 -55.418)" fill="#ebd2b3"/>
      <path id="Trazado_121884" data-name="Trazado 121884" d="M378.89,314.72c3.228,2.17,7.735,2.775,12.414,2.583,1.226-5.037,1.431-9.849-.872-12.693,0,0,8.057-2.758,14.154-1.021a34.451,34.451,0,0,0-9.908,13.45,83.312,83.312,0,0,0,18.075-4.464,42.142,42.142,0,0,0-4.9,14.814c-5.433-4.221-10.158-6.28-14.167-7.024-1.088,4.946-.6,10.691,3.282,16.828l-13.628-.615a94.358,94.358,0,0,0,7.216-16.546,16.781,16.781,0,0,0-13.84,6.64c-1.3-7.865,2.178-11.953,2.178-11.953" transform="translate(-282.87 -227.708)" fill="#e03015"/>
      <path id="Trazado_121885" data-name="Trazado 121885" d="M484.4,347.481c-.1-1.027-.181-2.058-.22-3.089a85.377,85.377,0,0,0,9.55-2.908,42.143,42.143,0,0,0-4.9,14.814c-1.245-.969-2.452-1.818-3.623-2.57-.282-2.081-.591-4.156-.8-6.247" transform="translate(-363.851 -256.616)" fill="#872b1e"/>
      <path id="Trazado_121886" data-name="Trazado 121886" d="M181.773,315.7c0-.2,0-.413.01-.63a120.3,120.3,0,0,0,5.509-15.7,8.106,8.106,0,0,0-3.508.487c.3-1.152.646-2.3,1.038-3.442a15.166,15.166,0,0,0,3.123.251,34.259,34.259,0,0,0,.972-8.551,23.078,23.078,0,0,1,5.2-5.453,8.186,8.186,0,0,1,3.568.733,36.028,36.028,0,0,0-7.433,13.113,43.225,43.225,0,0,0,12.5-3.876,57.633,57.633,0,0,0-4.111,14.637c-3.467-4.388-6.562-6.595-9.237-7.469a30.454,30.454,0,0,0,1.332,16.914Z" transform="translate(-136.598 -212.412)" fill="#e03015"/>
      <path id="Trazado_121887" data-name="Trazado 121887" d="M182.6,405.164a25.588,25.588,0,0,0,7.809,2.687c.1.309.208.612.322.919l-8.962-1.015c0-.2,0-.414.01-.63.191-.438.477-1.116.82-1.961" transform="translate(-136.598 -304.47)" fill="#872b1e"/>
      <path id="Trazado_121888" data-name="Trazado 121888" d="M246.657,324.666a44.009,44.009,0,0,0,4.513-1.889,57.4,57.4,0,0,0-4.092,14.511,31.454,31.454,0,0,1-.421-12.621" transform="translate(-185.017 -242.559)" fill="#872b1e"/>
      <path id="Trazado_121889" data-name="Trazado 121889" d="M428.542,95.774c2.209,1.29,5.183,1.511,8.235,1.2.582-3.345.5-6.5-1.133-8.274,0,0,5.152-2.119,9.218-1.224a22.376,22.376,0,0,0-5.882,9.191,54.364,54.364,0,0,0,11.629-3.625,27.394,27.394,0,0,0-2.548,9.886,22.052,22.052,0,0,0-9.581-4.035,14.338,14.338,0,0,0,2.89,10.879l-8.947.133a61.522,61.522,0,0,0,3.983-11.11,10.9,10.9,0,0,0-8.759,4.883c-1.206-5.1.894-7.905.894-7.905" transform="translate(-321.086 -65.571)" fill="#e03015"/>
      <path id="Trazado_121890" data-name="Trazado 121890" d="M505.48,112.077c2.339-.825,3.9-1.538,3.9-1.538a24.3,24.3,0,0,0-1.955,5.717,29.284,29.284,0,0,1-1.943-4.179" transform="translate(-379.855 -83.067)" fill="#872b1e"/>
      <path id="Trazado_121891" data-name="Trazado 121891" d="M455.954,171.593a17.84,17.84,0,0,0,.984,1.5l-8.947.133s.31-.642.771-1.708c2.4.056,4.794.119,7.191.074" transform="translate(-336.654 -128.892)" fill="#872b1e"/>
      <path id="Trazado_121892" data-name="Trazado 121892" d="M544.355,561.8a2.253,2.253,0,0,0,2.322,2.177,2.352,2.352,0,0,0,1.97-1.041v-2.277a2.351,2.351,0,0,0-1.97-1.04,2.253,2.253,0,0,0-2.322,2.181m.883-.175a1.625,1.625,0,1,1,1.619,1.519,1.575,1.575,0,0,1-1.619-1.519" transform="translate(-409.069 -420.538)" fill="#62321b"/>
      <path id="Trazado_121893" data-name="Trazado 121893" d="M548.114,559.2a2.391,2.391,0,0,1,1.613.614v.708a1.619,1.619,0,0,0-1.43-.838,1.524,1.524,0,1,0,0,3.042,1.627,1.627,0,0,0,1.43-.838v1.052a2.386,2.386,0,0,1-1.613.618,2.183,2.183,0,1,1,0-4.358" transform="translate(-410.15 -420.224)" fill="#a86435"/>
      <path id="Trazado_121894" data-name="Trazado 121894" d="M543.012,595.77a2.327,2.327,0,0,0,4.626.178v-.353a2.327,2.327,0,0,0-4.626.175m.887-.17a1.623,1.623,0,1,1,1.619,1.521A1.575,1.575,0,0,1,543.9,595.6" transform="translate(-408.06 -446.07)" fill="#62321b"/>
      <path id="Trazado_121895" data-name="Trazado 121895" d="M544.461,595.355a2.254,2.254,0,0,0,2.321,2.178,2.359,2.359,0,0,0,1.944-1v-2.365a2.362,2.362,0,0,0-1.944-1,2.252,2.252,0,0,0-2.321,2.179m.882-.175a1.625,1.625,0,1,1,1.621,1.521,1.572,1.572,0,0,1-1.621-1.521" transform="translate(-409.148 -445.757)" fill="#a86435"/>
      <path id="Trazado_121896" data-name="Trazado 121896" d="M500,599.809a2.327,2.327,0,1,0,2.319-2.177A2.254,2.254,0,0,0,500,599.809m.883-.17a1.626,1.626,0,1,1,1.623,1.523,1.577,1.577,0,0,1-1.623-1.523" transform="translate(-375.734 -449.106)" fill="#62321b"/>
      <path id="Trazado_121897" data-name="Trazado 121897" d="M501.433,599.387a2.326,2.326,0,1,0,2.324-2.18,2.254,2.254,0,0,0-2.324,2.18m.885-.175a1.626,1.626,0,1,1,1.622,1.521,1.573,1.573,0,0,1-1.622-1.521" transform="translate(-376.814 -448.786)" fill="#a86435"/>
      <path id="Trazado_121898" data-name="Trazado 121898" d="M458.058,601.153a2.327,2.327,0,1,0,2.319-2.177,2.251,2.251,0,0,0-2.319,2.177m.884-.174a1.624,1.624,0,1,1,1.62,1.523,1.573,1.573,0,0,1-1.62-1.523" transform="translate(-344.219 -450.115)" fill="#62321b"/>
      <path id="Trazado_121899" data-name="Trazado 121899" d="M459.492,600.734a2.326,2.326,0,1,0,2.322-2.176,2.254,2.254,0,0,0-2.322,2.176m.886-.172a1.624,1.624,0,1,1,1.622,1.52,1.572,1.572,0,0,1-1.622-1.52" transform="translate(-345.296 -449.801)" fill="#a86435"/>
      <path id="Trazado_121900" data-name="Trazado 121900" d="M416.539,601.153a2.326,2.326,0,1,0,2.323-2.177,2.253,2.253,0,0,0-2.323,2.177m.884-.174a1.624,1.624,0,1,1,1.619,1.523,1.573,1.573,0,0,1-1.619-1.523" transform="translate(-313.018 -450.115)" fill="#62321b"/>
      <path id="Trazado_121901" data-name="Trazado 121901" d="M417.972,600.734a2.327,2.327,0,1,0,2.322-2.176,2.255,2.255,0,0,0-2.322,2.176m.884-.172a1.626,1.626,0,1,1,1.623,1.52,1.575,1.575,0,0,1-1.623-1.52" transform="translate(-314.095 -449.801)" fill="#a86435"/>
      <path id="Trazado_121902" data-name="Trazado 121902" d="M373.285,598.182A2.326,2.326,0,1,0,375.606,596a2.252,2.252,0,0,0-2.321,2.179m.884-.175a1.625,1.625,0,1,1,1.624,1.521,1.576,1.576,0,0,1-1.624-1.521" transform="translate(-280.514 -447.881)" fill="#62321b"/>
      <path id="Trazado_121903" data-name="Trazado 121903" d="M374.73,597.751a2.324,2.324,0,1,0,2.32-2.177,2.253,2.253,0,0,0-2.32,2.177m.883-.169a1.625,1.625,0,1,1,1.619,1.52,1.576,1.576,0,0,1-1.619-1.52" transform="translate(-281.6 -447.559)" fill="#a86435"/>
      <path id="Trazado_121904" data-name="Trazado 121904" d="M335.324,595.1a2.326,2.326,0,1,0,2.322-2.176,2.251,2.251,0,0,0-2.322,2.176m.883-.172a1.625,1.625,0,1,1,1.622,1.523,1.574,1.574,0,0,1-1.622-1.523" transform="translate(-251.987 -445.569)" fill="#62321b"/>
      <path id="Trazado_121905" data-name="Trazado 121905" d="M336.765,594.678a2.326,2.326,0,1,0,2.322-2.178,2.254,2.254,0,0,0-2.322,2.178m.884-.173a1.624,1.624,0,1,1,1.622,1.519,1.575,1.575,0,0,1-1.622-1.519" transform="translate(-253.07 -445.249)" fill="#a86435"/>
    </g>
  </g>
  <g id="Grupo_81489" data-name="Grupo 81489" transform="translate(0 0)">
    <g id="Grupo_81488" data-name="Grupo 81488" transform="translate(0 0)" clip-path="url(#clip-path-4)">
      <path id="Trazado_121906" data-name="Trazado 121906" d="M176.889,1264.456c-.722-1.781-.628-3.288-1.07-5.078-.488-1.98-2.065-2.971-3.346-4.407-2.273-2.549-1.679-5.851-2.871-8.9a23.7,23.7,0,0,0-8.421-10.631c-4.015-2.827-7.99-3.162-12.708-3.83-2.274-.322-4.469-.942-6.718-1.393a38.486,38.486,0,0,1-6.59-1.512c-1.537-.607-3.03-1.387-4.577-1.99-1.832-.3-3.662-.625-5.488-.984-16.848-3.317-33.066-10.707-50.514-6.889-4,.875-8.04,1.973-12.147,2.184a73.464,73.464,0,0,1-12.569-.658c-8.691-1.05-17.278-2.291-26.066-2.061a67.548,67.548,0,0,0-14.268,1.51c-3.21.786-6.36,1.776-9.536,2.68v45.326H176.933a4.807,4.807,0,0,0-.044-3.367" transform="translate(0 -1068.578)" fill="#f8eed3"/>
      <path id="Trazado_121907" data-name="Trazado 121907" d="M49.315,1560.915a1.428,1.428,0,0,0,0,2.855,1.428,1.428,0,0,0,0-2.855" transform="translate(-42.061 -1369.68)" fill="#e7b792"/>
      <path id="Trazado_121908" data-name="Trazado 121908" d="M38.052,1291.083a1.429,1.429,0,0,0,0,2.856,1.429,1.429,0,0,0,0-2.856" transform="translate(-32.178 -1132.906)" fill="#e7b792"/>
      <path id="Trazado_121909" data-name="Trazado 121909" d="M283.877,1428.876a1.428,1.428,0,0,0,0,2.854,1.428,1.428,0,0,0,0-2.854" transform="translate(-247.886 -1253.818)" fill="#e7b792"/>
      <path id="Trazado_121910" data-name="Trazado 121910" d="M287.377,1247.122a1.428,1.428,0,0,0,0,2.855,1.428,1.428,0,0,0,0-2.855" transform="translate(-250.957 -1094.331)" fill="#e7b792"/>
      <path id="Trazado_121911" data-name="Trazado 121911" d="M195.336,1504.989a1.428,1.428,0,0,0,0,2.855,1.428,1.428,0,0,0,0-2.855" transform="translate(-170.193 -1320.606)" fill="#e7b792"/>
      <path id="Trazado_121912" data-name="Trazado 121912" d="M350.673,1534.505a1.428,1.428,0,0,0,0,2.854,1.428,1.428,0,0,0,0-2.854" transform="translate(-306.498 -1346.505)" fill="#e7b792"/>
      <path id="Trazado_121913" data-name="Trazado 121913" d="M456.3,1391.591a1.428,1.428,0,0,0,0,2.855,1.428,1.428,0,0,0,0-2.855" transform="translate(-399.186 -1221.101)" fill="#e7b792"/>
      <path id="Trazado_121914" data-name="Trazado 121914" d="M832.687,1258.778a1.428,1.428,0,0,0,0,2.855,1.428,1.428,0,0,0,0-2.855" transform="translate(-729.459 -1104.559)" fill="#e7b792"/>
      <path id="Trazado_121915" data-name="Trazado 121915" d="M761.746,1450.72a1.428,1.428,0,0,0,0,2.855,1.428,1.428,0,0,0,0-2.855" transform="translate(-667.209 -1272.985)" fill="#e7b792"/>
      <path id="Trazado_121916" data-name="Trazado 121916" d="M642.789,1373.767a1.429,1.429,0,0,0,0,2.856,1.429,1.429,0,0,0,0-2.856" transform="translate(-562.827 -1205.46)" fill="#e7b792"/>
      <path id="Trazado_121917" data-name="Trazado 121917" d="M881.451,1560.915a1.428,1.428,0,0,0,0,2.855,1.428,1.428,0,0,0,0-2.855" transform="translate(-772.248 -1369.68)" fill="#e7b792"/>
      <path id="Trazado_121918" data-name="Trazado 121918" d="M533.967,1522.067a1.429,1.429,0,0,0,0,2.856,1.429,1.429,0,0,0,0-2.856" transform="translate(-467.336 -1335.591)" fill="#e7b792"/>
      <path id="Trazado_121919" data-name="Trazado 121919" d="M83.772,1513.915a.714.714,0,0,0,0,1.428.714.714,0,0,0,0-1.428" transform="translate(-72.902 -1328.438)" fill="#e7b792"/>
      <path id="Trazado_121920" data-name="Trazado 121920" d="M206.495,1588.481a.714.714,0,0,0,0,1.427.714.714,0,0,0,0-1.427" transform="translate(-180.59 -1393.869)" fill="#e7b792"/>
      <path id="Trazado_121921" data-name="Trazado 121921" d="M215.811,1439.356a.714.714,0,0,0,0,1.427.714.714,0,0,0,0-1.427" transform="translate(-188.764 -1263.014)" fill="#e7b792"/>
      <path id="Trazado_121922" data-name="Trazado 121922" d="M89.41,1373.767a.714.714,0,0,0,0,1.428.714.714,0,0,0,0-1.428" transform="translate(-77.85 -1205.46)" fill="#e7b792"/>
      <path id="Trazado_121923" data-name="Trazado 121923" d="M378.921,1366.353a.714.714,0,0,0,0,1.427.714.714,0,0,0,0-1.427" transform="translate(-331.891 -1198.955)" fill="#e7b792"/>
      <path id="Trazado_121924" data-name="Trazado 121924" d="M556.395,1285.259a.714.714,0,0,0,0,1.427.714.714,0,0,0,0-1.427" transform="translate(-487.622 -1127.796)" fill="#e7b792"/>
      <path id="Trazado_121925" data-name="Trazado 121925" d="M739.372,1555.091a.714.714,0,0,0,0,1.427.714.714,0,0,0,0-1.427" transform="translate(-648.181 -1364.569)" fill="#e7b792"/>
      <path id="Trazado_121926" data-name="Trazado 121926" d="M869.492,1373.767a.714.714,0,0,0,0,1.428.714.714,0,0,0,0-1.428" transform="translate(-762.36 -1205.46)" fill="#e7b792"/>
      <path id="Trazado_121927" data-name="Trazado 121927" d="M642.1,1483.235a.715.715,0,0,0,0,1.429.715.715,0,0,0,0-1.429" transform="translate(-562.828 -1301.517)" fill="#e7b792"/>
      <path id="Trazado_121928" data-name="Trazado 121928" d="M436.391,1490.622a.714.714,0,0,0,0,1.427.714.714,0,0,0,0-1.427" transform="translate(-382.321 -1307.999)" fill="#e7b792"/>
      <path id="Trazado_121929" data-name="Trazado 121929" d="M281.055,1489.071a.714.714,0,0,0,0,1.427.714.714,0,0,0,0-1.427" transform="translate(-246.015 -1306.638)" fill="#e7b792"/>
      <path id="Trazado_121930" data-name="Trazado 121930" d="M200.857,1296.907a.715.715,0,0,0,0,1.428.715.715,0,0,0,0-1.428" transform="translate(-175.642 -1138.017)" fill="#e7b792"/>
      <path id="Trazado_121931" data-name="Trazado 121931" d="M434.836,1586.931a.714.714,0,0,0,0,1.427.714.714,0,0,0,0-1.427" transform="translate(-380.956 -1392.509)" fill="#e7b792"/>
      <path id="Trazado_121932" data-name="Trazado 121932" d="M545.123,1433.022a.714.714,0,0,0,0-1.427.714.714,0,0,0,0,1.427" transform="translate(-477.731 -1256.203)" fill="#e7b792"/>
      <path id="Trazado_121933" data-name="Trazado 121933" d="M925.8,1428.876a1.428,1.428,0,0,0,0,2.854,1.428,1.428,0,0,0,0-2.854" transform="translate(-811.163 -1253.818)" fill="#e7b792"/>
      <path id="Trazado_121934" data-name="Trazado 121934" d="M948.341,1328.423a1.428,1.428,0,0,0,0,2.855,1.428,1.428,0,0,0,0-2.855" transform="translate(-830.943 -1165.672)" fill="#e7b792"/>
      <path id="Trazado_121935" data-name="Trazado 121935" d="M992.6,1534.505a1.428,1.428,0,0,0,0,2.854,1.428,1.428,0,0,0,0-2.854" transform="translate(-869.779 -1346.505)" fill="#e7b792"/>
      <path id="Trazado_121936" data-name="Trazado 121936" d="M1098.228,1391.591a1.428,1.428,0,0,0,0,2.855,1.428,1.428,0,0,0,0-2.855" transform="translate(-962.467 -1221.101)" fill="#e7b792"/>
      <path id="Trazado_121937" data-name="Trazado 121937" d="M1284.711,1373.767a1.429,1.429,0,0,0,0,2.856,1.429,1.429,0,0,0,0-2.856" transform="translate(-1126.103 -1205.46)" fill="#e7b792"/>
      <path id="Trazado_121938" data-name="Trazado 121938" d="M1175.893,1522.067a1.429,1.429,0,0,0,0,2.856,1.429,1.429,0,0,0,0-2.856" transform="translate(-1030.617 -1335.591)" fill="#e7b792"/>
      <path id="Trazado_121939" data-name="Trazado 121939" d="M1020.837,1366.353a.714.714,0,0,0,0,1.427.714.714,0,0,0,0-1.427" transform="translate(-895.164 -1198.955)" fill="#e7b792"/>
      <path id="Trazado_121940" data-name="Trazado 121940" d="M1187.047,1371.864a.714.714,0,0,0,0,1.427.714.714,0,0,0,0-1.427" transform="translate(-1041.01 -1203.791)" fill="#e7b792"/>
      <path id="Trazado_121941" data-name="Trazado 121941" d="M1278.386,1499.165a.714.714,0,0,0,0,1.427.714.714,0,0,0,0-1.427" transform="translate(-1121.158 -1315.495)" fill="#e7b792"/>
      <path id="Trazado_121942" data-name="Trazado 121942" d="M1078.314,1490.622a.714.714,0,0,0,0,1.427.714.714,0,0,0,0-1.427" transform="translate(-945.599 -1307.999)" fill="#e7b792"/>
      <path id="Trazado_121943" data-name="Trazado 121943" d="M1076.763,1586.931a.714.714,0,0,0,0,1.427.714.714,0,0,0,0-1.427" transform="translate(-944.238 -1392.509)" fill="#e7b792"/>
      <path id="Trazado_121944" data-name="Trazado 121944" d="M1187.047,1433.022a.714.714,0,0,0,0-1.427.714.714,0,0,0,0,1.427" transform="translate(-1041.01 -1256.203)" fill="#e7b792"/>
      <path id="Trazado_121945" data-name="Trazado 121945" d="M717.978,1294.816a.714.714,0,0,0,0-1.427.714.714,0,0,0,0,1.427" transform="translate(-629.408 -1134.929)" fill="#e7b792"/>
      <path id="Trazado_121946" data-name="Trazado 121946" d="M863.289,108.988a2.907,2.907,0,0,1,.658.678c.379.551.35,1.234.695,1.789a8.938,8.938,0,0,0,.158-3.346,12.124,12.124,0,0,0-.917-2.251,2.067,2.067,0,0,1-.247-.384c-.153-.241.227-.475.4-.252a3.92,3.92,0,0,1,.771,1.141,6.61,6.61,0,0,1,.927,2.262c.269-.169.134-.7.094-.986a7.041,7.041,0,0,0-.241-1.211,5.769,5.769,0,0,0-.74-1.612c-.071-.1-.158-.212-.091-.335a.256.256,0,0,1,.406-.039,1.5,1.5,0,0,1,.243.289,7.657,7.657,0,0,1,1.1,2.26,10.464,10.464,0,0,1,.255,1.27c.263-.025.176-.118.167-.354a7.217,7.217,0,0,0-.086-1.116,5.85,5.85,0,0,0-.271-1.052c-.078-.3-.2-.6-.3-.894-.051-.143-.318-.824.184-.651.245.087.378.587.472.778.108.215.222.429.315.647.1.259.2.516.318.773a4.621,4.621,0,0,1,.278,1c.04.224.075.446.114.67.045.253.03.352.268.493a10.138,10.138,0,0,0-.418-2.311c-.04-.15-.187-.427-.151-.589.063-.28.394-.191.485,0a9.82,9.82,0,0,1,.542,1.413,14.352,14.352,0,0,1,.52,3.729,27.319,27.319,0,0,1-.462,4.368c-.08.492-.6,1.634-.456,6.485.033,1.072-3.107-1.933-4.224-2.206a25.341,25.341,0,0,0,.99-4.937,4.163,4.163,0,0,0-.961-2.078,4.032,4.032,0,0,1-.654-2.023,3.724,3.724,0,0,0-.123-.459c-.068-.256-.331-.438-.418-.687-.165-.247.2-.442.4-.271" transform="translate(-757.135 -91.403)" fill="#f6a579"/>
      <path id="Trazado_121947" data-name="Trazado 121947" d="M834.977,191.828a16.552,16.552,0,0,0-2.549-.021c-.08.007-.211.021-.36.028a16.585,16.585,0,0,1-.752,3.742c-.3,1.641-.889,3.209-1.3,4.828-.507,2.013-1.06,4.03-1.623,6.03-.948,3.349-2.9,7.342-2.673,10.867.175,2.752,3.013,5.3,5.553,3.138,3.007-2.564,3.165-7.864,3.7-11.458.593-4.019.505-8.038.721-12.048a34.3,34.3,0,0,1,.407-3.418,8.143,8.143,0,0,1,.338-1.789,6.97,6.97,0,0,1-1.466.1" transform="translate(-724.544 -168.238)" fill="#a60e30"/>
      <path id="Trazado_121948" data-name="Trazado 121948" d="M876.867,189.274c-.312.374-2.048.174-2.38.147-.45-.035-.894-.1-1.335-.107a6.8,6.8,0,0,1-1.459.127,4.719,4.719,0,0,1-.107.714c-.046.306-.32,1.048.158,1.15.381.085.61-.447,1.141-.218.353.154.276.283.721.218.3-.045.537-.214.876-.089.271.1.424.426.734.434s.57-.381.867-.461c.622-.162,1.025.4,1.068-.574.018-.4-.287-.937-.284-1.341" transform="translate(-764.698 -166.086)" fill="#fbe8ef"/>
      <path id="Trazado_121949" data-name="Trazado 121949" d="M699.225,255.72a5.959,5.959,0,0,0-.389-.587c-.908-1.21-1.737-2.478-2.638-3.712-1.544-2.123-3.434-3.538-5.266-5.412-3.059-3.117-5.329-7.86-9.024-10.228-3.3-2.122-7.1-.406-7.005,3.779.046,2.246,1.962,5.31,2.987,7.312,1.857,3.612,4.513,5.639,7.266,8.388,2.775,2.762,6.446,5.227,10.551,4.4a6.308,6.308,0,0,0,3.254-1.539,1.817,1.817,0,0,0,.265-2.4" transform="translate(-592.215 -206.095)" fill="#a60e30"/>
      <path id="Trazado_121950" data-name="Trazado 121950" d="M574.389,94.549a16.849,16.849,0,0,1-2.19,8.368c-.9,1.65-2.475,2.987-3.224,4.684-1.215,2.751,2.466,5.249,4.608,6.067,5.109,1.952,11.541,2.243,16.245-.965a6.033,6.033,0,0,0,2.878-5.487A27.068,27.068,0,0,0,591,101.35c-.816-2.4-2.34-4.443-2.318-7.092Z" transform="translate(-499.056 -82.71)" fill="#c9d6da"/>
      <path id="Trazado_121951" data-name="Trazado 121951" d="M588.613,50.413a4.2,4.2,0,0,1-2.66-.175c-.938-.548-1.152-1.733-1.361-2.748-.4-1.935-1.112-6.588,1-7.745,1.414-.773,2.933.641,3.787,1.668,1.626,1.962,3.783,3.584,2.662,6.583Z" transform="translate(-512.579 -34.682)" fill="#441812"/>
      <path id="Trazado_121952" data-name="Trazado 121952" d="M602.566,10.222c.877-3.669,4.12-5.926,7.265-7.279a6.6,6.6,0,0,1,6.045.187,7.428,7.428,0,0,1,3.145,3.363,3.988,3.988,0,0,1,.689,2.166,4.413,4.413,0,0,1-1.454,2.592,11.24,11.24,0,0,1-3.779,3.233c-2.556,1.175-5.168.763-7.8.1Z" transform="translate(-528.743 -2.02)" fill="#441812"/>
      <path id="Trazado_121953" data-name="Trazado 121953" d="M723.491,42.394c1.157-.425,1.566-2.722,1.77-3.824a13.754,13.754,0,0,0,.474-4.459c-.151-1.05-.878-1.732-1.931-1.243-1.194.552-1.632,1.975-2.355,2.992a10.614,10.614,0,0,0-1.521,2.313,2.91,2.91,0,0,0,1.984,3.939Z" transform="translate(-631.531 -28.7)" fill="#441812"/>
      <path id="Trazado_121954" data-name="Trazado 121954" d="M616.281,4.858s.192-.256.544-.691c.191-.2.415-.458.7-.727a10.172,10.172,0,0,1,1-.843c.185-.15.39-.287.6-.432s.433-.3.667-.431a15.639,15.639,0,0,1,1.5-.821c.131-.063.267-.126.4-.19.158-.075.285-.115.43-.173l.423-.169L623,.253a6.993,6.993,0,0,1,1.9-.248,6.707,6.707,0,0,1,1.886.354l.445.151.423.2c.142.07.274.123.422.211.129.076.254.153.379.229A5.854,5.854,0,0,1,629.8,2.309a8.476,8.476,0,0,1,.912,1.289,12.249,12.249,0,0,1,.618,1.175,4.721,4.721,0,0,1,.347.974,2.231,2.231,0,0,1,.065.663c0,.153,0,.233,0,.233s-.012-.08-.031-.231a2.426,2.426,0,0,0-.138-.634,4.269,4.269,0,0,0-.422-.9c-.2-.34-.429-.705-.694-1.1a8.169,8.169,0,0,0-.943-1.179,6.226,6.226,0,0,0-1.286-1c-.122-.072-.253-.146-.382-.22-.113-.06-.258-.114-.39-.175l-.4-.178-.42-.138a6.242,6.242,0,0,0-1.742-.309,6.658,6.658,0,0,0-1.755.21l-.42.11-.425.154c-.136.051-.294.1-.409.151-.134.058-.27.115-.4.172-.527.237-1.035.477-1.5.725-.238.122-.46.251-.676.382s-.423.248-.615.385c-.389.254-.734.514-1.039.741s-.54.462-.755.64l-.616.615" transform="translate(-540.777 -0.005)" fill="#8b3f1c"/>
      <path id="Trazado_121955" data-name="Trazado 121955" d="M586.859,48.494l-.28.047c-.184.029-.451.087-.8.122a2.956,2.956,0,0,1-1.272-.087c-.119-.043-.238-.1-.367-.153-.109-.078-.225-.154-.341-.231a2.548,2.548,0,0,1-.571-.747,8.218,8.218,0,0,1-.609-1.957,19.339,19.339,0,0,1-.381-2.239,13.816,13.816,0,0,1-.064-2.449,5.123,5.123,0,0,1,.739-2.484,2.419,2.419,0,0,1,1.036-.838,2.069,2.069,0,0,1,1.323-.058,4.747,4.747,0,0,1,2.022,1.35c.547.58.97,1.157,1.437,1.685a13.248,13.248,0,0,1,1.215,1.595,4.649,4.649,0,0,1,.658,1.6,4.09,4.09,0,0,1,.014,1.338,4.443,4.443,0,0,1-.225.818l-.1.277s.027-.1.076-.286a5.056,5.056,0,0,0,.148-.823,3.872,3.872,0,0,0-.107-1.274,4.949,4.949,0,0,0-.71-1.469,13.71,13.71,0,0,0-1.251-1.492l-.737-.795c-.251-.27-.482-.56-.743-.818a4.272,4.272,0,0,0-1.815-1.187,1.547,1.547,0,0,0-.992.047,1.89,1.89,0,0,0-.812.671,4.636,4.636,0,0,0-.671,2.193A13.82,13.82,0,0,0,582.7,43.2c.076.764.174,1.5.3,2.2a7.954,7.954,0,0,0,.492,1.9,3.042,3.042,0,0,0,.212.37c.075.11.167.2.245.3.1.083.2.162.3.24.107.058.215.121.318.167a2.772,2.772,0,0,0,1.2.179c.694-.035,1.087-.061,1.087-.061" transform="translate(-510.824 -32.763)" fill="#8b3f1c"/>
      <path id="Trazado_121956" data-name="Trazado 121956" d="M743.78,41.083l.124-.075a1.511,1.511,0,0,0,.3-.272,3.533,3.533,0,0,0,.647-1.316,15.583,15.583,0,0,0,.438-2.089c.118-.787.314-1.619.423-2.435a8.786,8.786,0,0,0,.1-1.217,4.72,4.72,0,0,0-.02-.592c-.006-.091-.011-.213-.022-.271l-.058-.294a1.422,1.422,0,0,0-.5-.776.992.992,0,0,0-.805-.131l-.2.053-.049.015h-.013l-.023.012-.1.047a2.211,2.211,0,0,0-.345.184c-.1.069-.187.136-.271.193-.076.074-.147.146-.211.2-.132.123-.216.238-.285.309l-.1.111.078-.131a2.394,2.394,0,0,1,.229-.362c.059-.071.12-.154.19-.245s.168-.167.265-.258a2.4,2.4,0,0,1,.325-.245l.088-.058.02-.014.04-.018.054-.022.224-.09a1.606,1.606,0,0,1,.521-.087c.093.013.186.031.285.044a1.857,1.857,0,0,1,.277.123,1.756,1.756,0,0,1,.759,1.027l.073.291c.028.137.028.219.046.333a3.86,3.86,0,0,1,.038.645,8.8,8.8,0,0,1-.087,1.3c-.127.858-.329,1.673-.493,2.446a11.187,11.187,0,0,1-.614,2.109,3.359,3.359,0,0,1-.863,1.281,1.127,1.127,0,0,1-.368.22c-.091.03-.135.048-.135.048" transform="translate(-651.82 -27.389)" fill="#8b3f1c"/>
      <path id="Trazado_121957" data-name="Trazado 121957" d="M699.709,834.176c-.774,13.379-2.325,48.491-3.373,61.742-.219,2.793,3.777,6.984-1.17,6.344-3.99-.516-3.767-4.121-4.561-7.1-1.718-6.444-5.3-30.979-4.613-37.614a176.2,176.2,0,0,1,3.378-19.8Z" transform="translate(-601.873 -731.977)" fill="#fff"/>
      <path id="Trazado_121958" data-name="Trazado 121958" d="M733.437,1341.771c3.144-.318,6.1-.662,8.781-2.35a2.809,2.809,0,0,0-1.459-2.147,4.918,4.918,0,0,0-2.255-.138,6.978,6.978,0,0,1-3.194-.361c-.543-.251-.826-.75-1.313-1.073a11.244,11.244,0,0,1-1.917-1.137,7.463,7.463,0,0,1-.948-1.643c-.349-.623-2.137-.8-2.679-1.224-.044.794.005,1.556-.76,1.843a3.07,3.07,0,0,1-2.42-.266c-.556-.489-.235-1.526-.774-2.127-.579-.643-1.192-.2-1.776-.21.259.374-.02,1.688-.063,1.991-.2,1.362.06,2.506-.064,4.049-.1,1.2-.268,2.716.5,3.83,3.152,1.37,6.982,1.3,10.341.962" transform="translate(-633.991 -1167.757)" fill="#a86435"/>
      <path id="Trazado_121959" data-name="Trazado 121959" d="M728.5,1400.96c-2.2-.16-4.649-.5-6.444-1.743-.31.171-.423,1.246-.2,1.563,1.037,1.47,3.585,1.152,5.267,1.319a36.462,36.462,0,0,0,7.522.087c2.012-.235,4.414-.385,6.062-1.67a1.857,1.857,0,0,0,.793-1.984c-3.879,2.264-8.5,2.763-13,2.428" transform="translate(-633.312 -1227.191)" fill="#441812"/>
      <path id="Trazado_121960" data-name="Trazado 121960" d="M356.507,862.665c-4.748,8.512-22.764,41.559-26.327,47.606-1.428,2.424.93,5.469-3.254,2.8-3.371-2.151-1.665-3.943-1.072-6.968,1.292-6.538,7.362-31.894,10.585-37.772,3.384-6.181,7.143-11.512,12.428-15.74Z" transform="translate(-285.09 -748.132)" fill="#fff"/>
      <path id="Trazado_121961" data-name="Trazado 121961" d="M291.68,1305.059c2.842,1.673,5.542,3.205,8.881,3.439a2.885,2.885,0,0,0,.145-2.7,5.047,5.047,0,0,0-1.806-1.506,7.109,7.109,0,0,1-2.444-2.271,10.478,10.478,0,0,1-.412-1.71,11.112,11.112,0,0,1-.878-2.135,7.637,7.637,0,0,1,.255-1.961c.105-.743-1.276-1.989-1.456-2.677-.55.636-1,1.306-1.821,1.075a3.122,3.122,0,0,1-1.865-1.715c-.148-.752.781-1.427.716-2.263-.073-.892-.871-.9-1.356-1.27-.021.476-1.1,1.405-1.328,1.633-1.045,1.021-1.56,2.137-2.653,3.361-.857.949-1.967,2.117-2.036,3.521,1.768,3.095,5.02,5.4,8.059,7.177" transform="translate(-248.873 -1131.401)" fill="#a86435"/>
      <path id="Trazado_121962" data-name="Trazado 121962" d="M282.366,1355.418c-1.742-1.491-3.575-3.284-4.286-5.433-.372-.05-1.157.786-1.171,1.191-.073,1.875,2.269,3.177,3.579,4.35a37.495,37.495,0,0,0,6.25,4.71c1.844,1.041,3.952,2.4,6.161,2.337a2.012,2.012,0,0,0,1.939-1.179c-4.708-.494-8.9-2.919-12.473-5.975" transform="translate(-242.983 -1184.589)" fill="#441812"/>
      <path id="Trazado_121963" data-name="Trazado 121963" d="M579.01,238.869a41.119,41.119,0,0,0,5.507,6.275c1.926,1.713,4.639,3.871,7.371,3.855,2.972-.014,5.017-2.31,6.466-4.672a45.269,45.269,0,0,0,2.842-5.586,21.578,21.578,0,0,0-4.666-8.417c-1.454-1.615-3.917-4.2-6.214-5.069.107.907-8.249,3.118-8.688-.376a11.354,11.354,0,0,0-6.621,4.581,15.259,15.259,0,0,0-1.1,1.765,88.228,88.228,0,0,0,5.1,7.643" transform="translate(-503.594 -197.328)" fill="#f6a579"/>
      <path id="Trazado_121964" data-name="Trazado 121964" d="M440.406,316.572c.767-5.976,1.363-11.934,2.137-17.95a60.412,60.412,0,0,0-.2-16.112c-.418-3.153-.465-6.461-.589-9.671a49.02,49.02,0,0,0-.118-5.3c-.3-2.041-.854-4.037-1.115-6.087-.838-6.679-.707-13.292-2.426-19.906-1.439-5.525-4.032-13.129-9.321-16.005,0,0-.072,5.983-2.689,6.477-4.351.817-7.636-3.651-9.182-7.135a8.468,8.468,0,0,0-4.577,4.32,29.51,29.51,0,0,0-3.031,8.816c-.854,4.517-.162,8.989.667,13.452.786,4.21-.022,8.581-.547,12.784-.585,4.7-2.057,9.373-3.307,13.923-1.235,4.5-2.8,8.941-4.2,13.414a81.428,81.428,0,0,1-3.2,9.251,169.387,169.387,0,0,1-8.458,16.221c-.551.938-1.186,2.693-2.091,3.985a43.245,43.245,0,0,1,6.711-1.732c6.826-1.688,13.447-3.224,20.07-4.932,2.157-.557,3.917-.758,5.178-1.726.035.293.062.546.071.736.167,3.108.512,6.166.777,9.231a31.044,31.044,0,0,1,.338,6.8c1.9.287,4.014,1.728,5.453,2.318a20.068,20.068,0,0,0,8.016,1.71,57.958,57.958,0,0,1,6.5,0c-2.218-5.363-1.568-11.353-.863-16.876" transform="translate(-340.598 -197.328)" fill="#a60e30"/>
      <path id="Trazado_121965" data-name="Trazado 121965" d="M656.356,906.727a17.51,17.51,0,0,1-.758-2.266l-.064-.243-.25.029a21.555,21.555,0,0,1-9.116-1.206c-.345-.109-.729-.222-1.139-.348-2.14-.632-5.065-1.5-6-3.287-1.165-2.242-1.323-5.289-1.459-7.978-.022-.456-.049-.9-.073-1.337-.107-1.643-.165-3.32-.218-4.947-.06-1.8-.123-3.672-.254-5.5l-.093-1.312-.467,1.228a63.649,63.649,0,0,1-3.141,7.07l-.367.684.727-.275a6.609,6.609,0,0,0,1-.476c.007.086.012.165.018.238.111,2.16.32,4.331.518,6.43q.138,1.408.26,2.809c.044.521.107,1.061.168,1.613a20.7,20.7,0,0,1,.17,5.125l-.04.284.285.042a13.294,13.294,0,0,1,3.775,1.515c.582.3,1.126.587,1.611.784a20.175,20.175,0,0,0,8.125,1.734c.589,0,1.243-.023,1.932-.052.77-.028,1.562-.061,2.36-.061a19.815,19.815,0,0,1,2.177.108l.495.057Z" transform="translate(-555.414 -770.721)" fill="#fbe8ef"/>
      <path id="Trazado_121966" data-name="Trazado 121966" d="M422.544,621.633a2.811,2.811,0,0,1-.3.076,2.891,2.891,0,0,1-.505.035,6.034,6.034,0,0,1-2.384-.469l-.5-.242.078.543a10.675,10.675,0,0,1-.143,2.7c-.037.256-.071.487-.089.678-.327,3.205-.859,6.362-1.286,8.751-.443,2.479-.811,4.985-1.172,7.4-.221,1.486-.44,2.972-.678,4.46-.093.623-.174,1.339-.258,2.1-.4,3.7-.9,8.312-4.326,9.147-2.8.682-5.649,1.5-8.407,2.282a108.41,108.41,0,0,1-17.533,3.981l-.142.014-.076.122c-.265.44-.529.877-.79,1.318-.213.366-.438.853-.683,1.367a17.465,17.465,0,0,1-1.393,2.6l-.593.847.949-.416a26.644,26.644,0,0,1,4.974-1.348c.636-.131,1.219-.249,1.692-.364q3.894-.964,7.713-1.88c4.059-.983,8.254-2,12.357-3.054.493-.131.963-.237,1.413-.343.38-.087.745-.17,1.123-.266l.044-.021c5.887-1.908,7.236-9.535,8.131-14.61.321-3.572.71-7.181,1.055-10.366.5-4.607,1.212-9.668,2.08-14.632l.113-.549Z" transform="translate(-334.644 -544.947)" fill="#fbe8ef"/>
      <path id="Trazado_121967" data-name="Trazado 121967" d="M607.43,545.307c-16.07,0-28.865-10.144-29.4-10.576l2.922-3.636-1.459,1.818,1.459-1.822c.12.1,12.091,9.549,26.481,9.549Z" transform="translate(-507.21 -466.025)" fill="#ffc81c"/>
      <path id="Trazado_121968" data-name="Trazado 121968" d="M536.508,666.043l.384-4.648c.211.015,21.317,1.642,33.892-5.6l2.329,4.044c-13.843,7.974-35.681,6.278-36.6,6.2" transform="translate(-470.778 -575.452)" fill="#a86435"/>
      <path id="Trazado_121969" data-name="Trazado 121969" d="M466.376,243.445c-.738-1.419-1.437-2.947-2.213-4.39-.193-.365-.393-.726-.6-1.075-1.179-2-2.391-3.6-2.758-5.944-.123.077-.247.17-.369.259a13.919,13.919,0,0,0-3.025,3.023c-3.305,4.508-3.741,10.261-3.721,15.812,0,1.884.147,3.85.281,5.749.262,3.729.536,7.581-.151,11.167-.223,1.158-.525,2.316-.814,3.441-.881,3.383-7.754,26.333-12.458,35.312,3.788-2.124,9.617-2.9,12.72-3.645a27.89,27.89,0,0,1,5.8-.869h.156a31.972,31.972,0,0,1,.9-4.628c.827-3.083,2.2-5.993,2.9-9.184.725-3.29,1.246-6.619,1.9-9.922,2.336-11.674,7.436-23.576,1.451-35.105" transform="translate(-386.573 -203.609)" fill="#441812"/>
      <path id="Trazado_121970" data-name="Trazado 121970" d="M751.936,292.814c-.2-1.9-.422-3.8-.673-5.7-.391-2.978-.854-5.945-1.441-8.884a72.538,72.538,0,0,1-1.161-12.312c-.249-7.786-.928-15.284-6.446-21.405-.529-.587-1.341-1.47-2.286-2.355l-.6-.563.112.813c.272,1.987.623,3.993.963,5.93.447,2.531.9,5.151,1.19,7.746.125,1.124.208,2.269.285,3.376a54.7,54.7,0,0,0,.63,5.788c.632,3.454,1.508,6.857,2.2,10.332.81,4.051,1.831,8.054,2.658,12.1a98.176,98.176,0,0,0,3.033,11.472c.21.626.861,2.1,1.417,3.637-.029-3.327.461-6.815.118-9.98" transform="translate(-648.749 -212)" fill="#441812"/>
      <path id="Trazado_121971" data-name="Trazado 121971" d="M644.805,185.317a46.566,46.566,0,0,1-.7-5.634c-.031-1.2.024-4.808.024-4.808l-8.779-.046s.073,3.894.14,5.1a12.651,12.651,0,0,0,.87,4.957c1.183,2.3,9.083,4.359,8.44.434" transform="translate(-557.514 -153.41)" fill="#f6a579"/>
      <path id="Trazado_121972" data-name="Trazado 121972" d="M636.922,174.829a6.7,6.7,0,0,0,4.341,4.988,11.028,11.028,0,0,0,4.257.575c-.015-.267-.033-.508-.035-.708-.032-1.2.024-4.808.024-4.808Z" transform="translate(-558.889 -153.41)" fill="#c67f56"/>
      <path id="Trazado_121973" data-name="Trazado 121973" d="M634.915,43.135a5.154,5.154,0,0,0-1.028-.845,6.582,6.582,0,0,0-4.61-.857,12.508,12.508,0,0,0-2.815.863c-1.5.651-3.232,1.345-4.084,2.84-.981,1.719-.494,4.281-.394,6.166.129,2.41.418,5.347,2.046,7.264a8.619,8.619,0,0,0,6.49,2.657c1.822.011,2.645-.271,4.213-2.6a10.661,10.661,0,0,0,1.612-3.572,18.434,18.434,0,0,0-.034-9.686,6.092,6.092,0,0,0-1.4-2.228" transform="translate(-545.598 -36.268)" fill="#f6a579"/>
      <path id="Trazado_121974" data-name="Trazado 121974" d="M706.191,122.508a2.494,2.494,0,0,0,1.026-.36c.473-.293.394-.936.3-1.41a7.592,7.592,0,0,0-1.206-2.842c.22.872.514,1.726.727,2.6.067.307.287.957.084,1.259a3.66,3.66,0,0,1-.929.752" transform="translate(-619.672 -103.452)" fill="#c67f56"/>
      <path id="Trazado_121975" data-name="Trazado 121975" d="M667.063,115.543l-.08-.056a.938.938,0,0,0-.214-.14l-.14-.069-.165-.054a1.274,1.274,0,0,0-.375-.042,1.11,1.11,0,0,0-.368.082l-.165.065-.14.082a.935.935,0,0,0-.191.154l-.078.068.055-.086a.869.869,0,0,1,.156-.217l.138-.116.167-.1a1.379,1.379,0,0,1,.418-.109,1.315,1.315,0,0,1,.42.068l.178.083.151.1a.934.934,0,0,1,.174.2Z" transform="translate(-583.657 -100.919)" fill="#383c3f"/>
      <path id="Trazado_121976" data-name="Trazado 121976" d="M723.594,113.846l-.08-.06a1.062,1.062,0,0,0-.21-.141l-.14-.064-.166-.058a1.886,1.886,0,0,0-.37-.04,1.3,1.3,0,0,0-.364.08l-.165.065-.135.08a1.317,1.317,0,0,0-.191.16l-.073.069.051-.089a1,1,0,0,1,.16-.221l.131-.112.169-.1a1.336,1.336,0,0,1,.409-.111,1.29,1.29,0,0,1,.416.073l.18.085.147.1a.684.684,0,0,1,.169.2Z" transform="translate(-633.28 -99.425)" fill="#383c3f"/>
      <path id="Trazado_121977" data-name="Trazado 121977" d="M660.821,96.007a1.313,1.313,0,0,0-1.415-.244,3.139,3.139,0,0,0-1.79,1.612c-.049.1.055.233.149.131.087-.012.329-.316.394-.371a2.592,2.592,0,0,1,1.212-.716,2.016,2.016,0,0,1,1.014-.011c.392.118.748-.042.436-.4" transform="translate(-577.037 -83.946)" fill="#383c3f"/>
      <path id="Trazado_121978" data-name="Trazado 121978" d="M716.434,94.977a1.2,1.2,0,0,1,1.181-.639,2.636,2.636,0,0,1,1.939,1.019c.069.076.007.236-.1.17-.078.017-.36-.21-.429-.244a2.108,2.108,0,0,0-1.23-.329,1.713,1.713,0,0,0-.881.282c-.315.227-.663.172-.48-.259" transform="translate(-628.616 -82.78)" fill="#383c3f"/>
      <path id="Trazado_121979" data-name="Trazado 121979" d="M723.437,114.955h0l.087-.1a.573.573,0,0,1,1.145-.055l.1.086.089-.1a.76.76,0,0,0-1.517.077Z" transform="translate(-634.721 -100.096)" fill="#383c3f"/>
      <path id="Trazado_121980" data-name="Trazado 121980" d="M666.928,116.447h.007l.087-.1a.563.563,0,0,1,.145-.413.588.588,0,0,1,.4-.19.581.581,0,0,1,.6.548l.1.087.087-.1a.765.765,0,0,0-.8-.723.753.753,0,0,0-.525.252.773.773,0,0,0-.2.549Z" transform="translate(-585.136 -101.401)" fill="#383c3f"/>
      <path id="Trazado_121981" data-name="Trazado 121981" d="M680.495,157.689s-2.4,1.408-5.6-.524c0,0,1.339,2.368,3.6,2.253a1.944,1.944,0,0,0,2-1.729" transform="translate(-592.209 -137.91)" fill="#fff"/>
      <path id="Trazado_121982" data-name="Trazado 121982" d="M741.34,109.9l0,0v0Z" transform="translate(-650.515 -96.432)" fill="#62321b"/>
      <path id="Trazado_121983" data-name="Trazado 121983" d="M613.3,53.854a6.223,6.223,0,0,1,.329-.888,7.5,7.5,0,0,1,4.451-3.883c.076-.025.154-.052.231-.073.885-.256.252.9.04,1.214-.265.4-.619.737-.894,1.144-.34.5-.68,1-1,1.519-.273.444-.176.894-.385,1.3-.218.441-.742.615-1,1.028a4,4,0,0,0-.222,2.331c.007.289.013,1.318-.538,1.032-.447-.231-.593-.9-.807-1.308a3.478,3.478,0,0,1-.394-1.406,5.6,5.6,0,0,1,.194-2.012" transform="translate(-537.974 -42.974)" fill="#c9d6da"/>
      <path id="Trazado_121984" data-name="Trazado 121984" d="M608.08,112.866s-1.41-1.634-2.143-.218c-.565,1.09.58,4.3,1.779,4.149s1.251-2.75.364-3.931" transform="translate(-531.57 -98.341)" fill="#f6a579"/>
      <path id="Trazado_121985" data-name="Trazado 121985" d="M609.556,118.4a3,3,0,0,0-.583-1.283,1.06,1.06,0,0,0-.5-.367c-.6-.18-.58.95-.574,1.23a1.8,1.8,0,0,1-.079-.8.708.708,0,0,1,.536-.651.874.874,0,0,1,.691.256,2.127,2.127,0,0,1,.593.883,6.948,6.948,0,0,1,.294,1.579,2.7,2.7,0,0,0-.387-.581c-.232-.212-.447.271-.487.447a.612.612,0,0,0,.247.7.64.64,0,0,1-.378-.78c.046-.278.271-.7.627-.627" transform="translate(-533.335 -102.241)" fill="#c67f56"/>
      <path id="Trazado_121986" data-name="Trazado 121986" d="M730.722,103.258c-.468,0-.839.784-.839,1.751s.371,1.751.839,1.751h1.294v-3.5Z" transform="translate(-640.461 -90.608)" fill="#ffc81c"/>
      <path id="Trazado_121987" data-name="Trazado 121987" d="M741.271,103.258c-.462,0-.841.784-.841,1.751s.378,1.751.841,1.751.838-.783.838-1.751-.376-1.751-.838-1.751" transform="translate(-649.716 -90.608)" fill="#df9810"/>
      <path id="Trazado_121988" data-name="Trazado 121988" d="M749.937,105.157h-6.292c-.4,0-.728.683-.728,1.518s.327,1.517.728,1.517h6.292c.4,0,.727-.678.727-1.517s-.327-1.518-.727-1.518" transform="translate(-651.899 -92.274)" fill="#ffc81c"/>
      <path id="Trazado_121989" data-name="Trazado 121989" d="M781.2,100.083h-8.868c-.568,0-1.023.959-1.023,2.14s.456,2.137,1.023,2.137H781.2c.566,0,1.025-.956,1.025-2.137s-.458-2.14-1.025-2.14" transform="translate(-676.815 -87.822)" fill="#8b3f1c"/>
      <path id="Trazado_121990" data-name="Trazado 121990" d="M784.981,100.083h-.992c-.242,1.455-.752,2.863-2.318,3.359a14.866,14.866,0,0,1-6.054.64.669.669,0,0,0,.5.278h8.868c.566,0,1.025-.956,1.025-2.137s-.458-2.14-1.025-2.14" transform="translate(-680.592 -87.822)" fill="#773517"/>
      <path id="Trazado_121991" data-name="Trazado 121991" d="M861.361,93.473h-14.4c-.782,0-1.414,1.322-1.414,2.95s.632,2.947,1.414,2.947h14.4c.783,0,1.415-1.319,1.415-2.947s-.632-2.95-1.415-2.95" transform="translate(-741.951 -82.022)" fill="#8b3f1c"/>
      <path id="Trazado_121992" data-name="Trazado 121992" d="M864.884,93.473h-2.593a6.051,6.051,0,0,0-1.125,2.551,2.656,2.656,0,0,1-.433,1.079,4.489,4.489,0,0,1-2.667,1.339c-2.827.493-5.667.18-8.51.194.246.451.567.733.922.733h14.4c.782,0,1.415-1.319,1.415-2.947s-.632-2.95-1.415-2.95" transform="translate(-745.474 -82.022)" fill="#773517"/>
      <path id="Trazado_121993" data-name="Trazado 121993" d="M955.847,93.473h-2.182c-.779,0-1.415,1.322-1.415,2.95s.636,2.947,1.415,2.947h2.182c.781,0,1.414-1.319,1.414-2.947s-.633-2.95-1.414-2.95" transform="translate(-835.585 -82.022)" fill="#f9ab20"/>
      <path id="Trazado_121994" data-name="Trazado 121994" d="M970.237,88.579c-.941,0-1.7,1.59-1.7,3.55s.761,3.548,1.7,3.548h2.624v-7.1Z" transform="translate(-849.875 -77.727)" fill="#ffc81c"/>
      <path id="Trazado_121995" data-name="Trazado 121995" d="M993.235,97.028c-.714,0-1.481-1.34-1.481-3.33s.766-3.33,1.481-3.33,1.481,1.337,1.481,3.33-.765,3.33-1.481,3.33" transform="translate(-870.249 -79.297)" fill="#4bbbe3"/>
      <path id="Trazado_121996" data-name="Trazado 121996" d="M991.672,89.019c.529,0,1.481,1.181,1.481,3.109s-.952,3.109-1.481,3.109-1.263-1.183-1.263-3.109.739-3.109,1.263-3.109m0-.44c-.937,0-1.7,1.59-1.7,3.55s.761,3.548,1.7,3.548,1.7-1.588,1.7-3.548-.761-3.55-1.7-3.55" transform="translate(-868.686 -77.727)" fill="#584514"/>
      <path id="Trazado_121997" data-name="Trazado 121997" d="M834.185,98.5a3,3,0,0,1,.5.8c.243.623.063,1.284.277,1.9a9.047,9.047,0,0,0,.9-3.229,12.364,12.364,0,0,0-.393-2.4,1.839,1.839,0,0,1-.158-.433c-.1-.268.326-.41.447-.154a3.849,3.849,0,0,1,.5,1.285,6.65,6.65,0,0,1,.4,2.408c.3-.1.283-.658.312-.938A7.372,7.372,0,0,0,837,96.516a5.752,5.752,0,0,0-.369-1.739c-.043-.113-.108-.235-.014-.342a.26.26,0,0,1,.408.048,1.485,1.485,0,0,1,.171.34,7.661,7.661,0,0,1,.571,2.445,11.13,11.13,0,0,1-.034,1.3c.263.032.2-.075.241-.31a7.052,7.052,0,0,0,.163-1.111,5.874,5.874,0,0,0-.032-1.083c-.01-.313-.06-.625-.095-.938-.02-.15-.13-.874.32-.592.22.139.237.655.291.859.06.239.118.469.161.7.047.274.09.549.14.821a4.742,4.742,0,0,1,.053,1.034c-.013.229-.025.454-.036.681-.011.257-.05.35.151.539a10.252,10.252,0,0,0,.1-2.344c0-.158-.087-.458-.018-.61.124-.26.426-.1.476.112a10.8,10.8,0,0,1,.212,1.5,14.318,14.318,0,0,1-.318,3.75,27.162,27.162,0,0,1-1.419,4.16c-.187.463-.948,1.463-1.877,6.225-.21,1.052-2.6-2.573-3.632-3.087a25.94,25.94,0,0,0,2.059-4.595,4.148,4.148,0,0,0-.478-2.24,3.942,3.942,0,0,1-.189-2.119,3.623,3.623,0,0,0-.021-.471c-.01-.267-.226-.5-.255-.763-.105-.28.287-.388.451-.176" transform="translate(-730.609 -82.798)" fill="#f6a579"/>
      <path id="Trazado_121998" data-name="Trazado 121998" d="M763.188,179.167a15.953,15.953,0,0,0-2.479-.583c-.076-.013-.209-.029-.356-.056a16.461,16.461,0,0,1-1.561,3.483c-.654,1.538-1.58,2.932-2.334,4.422-.941,1.854-1.926,3.7-2.918,5.521-1.668,3.056-4.45,6.519-5.013,10.006-.441,2.72,1.763,5.839,4.721,4.289,3.5-1.833,4.825-6.969,6.143-10.355,1.472-3.787,2.273-7.722,3.372-11.585.318-1.119.732-2.171,1.154-3.246a8.152,8.152,0,0,1,.727-1.671,7.09,7.09,0,0,1-1.457-.223" transform="translate(-656.772 -156.656)" fill="#a60e30"/>
      <path id="Trazado_121999" data-name="Trazado 121999" d="M842.752,176.648c-.388.293-2.037-.286-2.356-.386-.43-.136-.848-.293-1.275-.4a6.977,6.977,0,0,1-1.451-.2,5.876,5.876,0,0,1-.262.671c-.116.29-.547.952-.1,1.159.352.165.694-.3,1.159.036.314.23.21.338.656.377.3.022.573-.091.874.106.242.156.318.51.62.583s.639-.245.948-.256c.64-.02.912.613,1.168-.325.107-.387-.072-.974.021-1.368" transform="translate(-734.551 -154.144)" fill="#fbe8ef"/>
      <path id="Trazado_122000" data-name="Trazado 122000" d="M589.841,278.321a5.652,5.652,0,0,0-.572-.408c-1.281-.8-2.515-1.686-3.8-2.518-2.2-1.423-4.48-2.064-6.864-3.15-3.97-1.8-7.8-5.411-12.1-6.294-3.847-.789-6.765,2.178-5.176,6.05.854,2.077,3.744,4.248,5.42,5.745,3.034,2.7,6.244,3.634,9.8,5.209,3.579,1.581,7.894,2.557,11.424.306a6.286,6.286,0,0,0,2.484-2.61,1.815,1.815,0,0,0-.62-2.331" transform="translate(-492.172 -233.257)" fill="#a60e30"/>
      <path id="Trazado_122001" data-name="Trazado 122001" d="M596.079,344.385a8.426,8.426,0,0,1-.854-.043c-7.964-.777-18.812-10.241-19.27-10.646a.261.261,0,0,1-.026-.371.268.268,0,0,1,.375-.025c.109.1,11.179,9.757,18.972,10.516,3.156.312,6.073-1.212,8.628-4.52a.264.264,0,1,1,.417.324c-2.442,3.163-5.215,4.765-8.242,4.765" transform="translate(-505.312 -292.409)" fill="#fff"/>
      <path id="Trazado_122002" data-name="Trazado 122002" d="M616.557,692.47a.265.265,0,0,1-.011-.529c.153-.007,15.475-.634,23.9-5.289a.264.264,0,0,1,.255.463c-8.534,4.715-23.979,5.351-24.134,5.356Z" transform="translate(-540.787 -602.497)" fill="#fff"/>
      <path id="Trazado_122003" data-name="Trazado 122003" d="M664.737,598.085h-.009c-8.512-.29-18.425-4.937-18.527-4.984a.27.27,0,0,1-.124-.354.274.274,0,0,1,.354-.127c.1.05,9.917,4.649,18.318,4.936a.261.261,0,0,1,.254.274.267.267,0,0,1-.265.255" transform="translate(-566.901 -519.996)" fill="#fff"/>
      <path id="Trazado_122004" data-name="Trazado 122004" d="M713.267,771.475a.267.267,0,0,1-.26-.209c-1.01-4.413-.411-9.1.165-13.643.16-1.258.326-2.557.446-3.8.111-1.118.31-2.3.515-3.555.556-3.372,1.134-6.854.2-9.742a.264.264,0,1,1,.5-.165c.979,3.009.365,6.722-.178,10-.2,1.243-.4,2.42-.506,3.516-.123,1.256-.287,2.559-.45,3.818-.569,4.493-1.163,9.139-.169,13.461a.265.265,0,0,1-.2.315Z" transform="translate(-625.175 -649.493)" fill="#fff"/>
      <path id="Trazado_122005" data-name="Trazado 122005" d="M775.525,769.862a.263.263,0,0,1-.262-.227c-1.068-7.408-.62-14.5-.154-22.022l.007-.053a.256.256,0,0,1,.28-.248.267.267,0,0,1,.247.281l0,.055c-.469,7.484-.915,14.56.147,21.908a.266.266,0,0,1-.227.3Z" transform="translate(-679.705 -655.755)" fill="#fff"/>
      <path id="Trazado_122006" data-name="Trazado 122006" d="M590.966,778.338l-.08-.013a.259.259,0,0,1-.173-.33c.5-1.621.954-3.352,1.393-5.027a55.546,55.546,0,0,1,3.287-10.03.267.267,0,0,1,.356-.124.27.27,0,0,1,.123.356,55.341,55.341,0,0,0-3.253,9.932c-.439,1.68-.89,3.419-1.4,5.05a.271.271,0,0,1-.254.186" transform="translate(-518.33 -669.336)" fill="#fff"/>
      <path id="Trazado_122007" data-name="Trazado 122007" d="M510.035,848.734l-.138-.043a.262.262,0,0,1-.084-.362,27.993,27.993,0,0,0,1.5-2.856,20.48,20.48,0,0,1,2.311-4.024.265.265,0,0,1,.416.33,19.493,19.493,0,0,0-2.248,3.922,28.822,28.822,0,0,1-1.525,2.908.268.268,0,0,1-.227.125" transform="translate(-447.318 -738.272)" fill="#fff"/>
      <path id="Trazado_122008" data-name="Trazado 122008" d="M557.638,458.379l-.107-.023a.261.261,0,0,1-.135-.349,112.475,112.475,0,0,0,6.721-22.58c.587-2.86.945-5.823,1.292-8.689a92.947,92.947,0,0,1,1.6-10.1.263.263,0,1,1,.513.12,94.122,94.122,0,0,0-1.584,10.04c-.346,2.876-.707,5.852-1.3,8.734a112.91,112.91,0,0,1-6.755,22.686.265.265,0,0,1-.242.159" transform="translate(-489.085 -365.416)" fill="#fff"/>
      <path id="Trazado_122009" data-name="Trazado 122009" d="M537.4,587.745l-.063-.009a.263.263,0,0,1-.193-.321c.829-3.258,1.555-6.612,2.253-9.857.365-1.672.726-3.345,1.1-5.01a.267.267,0,0,1,.521.118c-.378,1.661-.739,3.334-1.1,5-.7,3.249-1.426,6.61-2.258,9.877a.265.265,0,0,1-.258.2" transform="translate(-471.326 -502.221)" fill="#fff"/>
      <path id="Trazado_122010" data-name="Trazado 122010" d="M796.779,458.035a.265.265,0,0,1-.26-.226c-.127-.879-.266-1.78-.412-2.7a58.165,58.165,0,0,1-1.047-12.234.251.251,0,0,1,.279-.244.266.266,0,0,1,.25.277,57.991,57.991,0,0,0,1.043,12.121c.144.917.285,1.822.412,2.7a.268.268,0,0,1-.227.3Z" transform="translate(-697.607 -388.404)" fill="#fff"/>
      <path id="Trazado_122011" data-name="Trazado 122011" d="M638.558,279.3a.25.25,0,0,1-.187-.08c-3.952-3.994-17.108-8.97-17.237-9.019a.265.265,0,1,1,.185-.5c.544.2,13.393,5.066,17.428,9.143a.262.262,0,0,1,0,.377Z" transform="translate(-544.883 -236.644)" fill="#fff"/>
      <path id="Trazado_122012" data-name="Trazado 122012" d="M363.55,1039.268l-.113-.026a.259.259,0,0,1-.126-.351,60.5,60.5,0,0,0,3.1-8.752c.651-2.188,1.323-4.448,2.157-6.575.393-1.005.774-2.03,1.159-3.062a72.81,72.81,0,0,1,3.387-8.094.264.264,0,1,1,.469.243,71.891,71.891,0,0,0-3.361,8.037c-.387,1.033-.77,2.065-1.165,3.071-.823,2.1-1.5,4.357-2.143,6.533a60.027,60.027,0,0,1-3.125,8.824.263.263,0,0,1-.236.154" transform="translate(-318.775 -888.246)" fill="#f8eed3"/>
      <path id="Trazado_122013" data-name="Trazado 122013" d="M420.814,1044.862l-.1-.02a.269.269,0,0,1-.146-.346,146.406,146.406,0,0,1,8.355-16.975.268.268,0,0,1,.365-.1.265.265,0,0,1,.1.363,145.19,145.19,0,0,0-8.322,16.911.263.263,0,0,1-.245.166" transform="translate(-369.025 -901.517)" fill="#f8eed3"/>
      <path id="Trazado_122014" data-name="Trazado 122014" d="M743.177,1170.853a.266.266,0,0,1-.262-.223,39.272,39.272,0,0,1-.036-8.486c.063-.9.125-1.8.165-2.687a.25.25,0,0,1,.276-.25.264.264,0,0,1,.254.273c-.04.892-.1,1.8-.162,2.7a38.314,38.314,0,0,0,.028,8.368.266.266,0,0,1-.222.3Z" transform="translate(-651.675 -1017.183)" fill="#f8eed3"/>
    </g>
  </g>
</svg>
