<svg xmlns="http://www.w3.org/2000/svg" xmlns:xlink="http://www.w3.org/1999/xlink" width="48.817" height="48.931" viewBox="0 0 48.817 48.931">
  <defs>
    <clipPath id="clip-path">
      <rect id="Rectángulo_36029" data-name="Rectángulo 36029" width="48.817" height="48.931" fill="#eb6f2d"/>
    </clipPath>
  </defs>
  <g id="Grupo_926495" data-name="Grupo 926495" opacity="0.5">
    <g id="Grupo_82680" data-name="Grupo 82680" clip-path="url(#clip-path)">
      <path id="Trazado_130681" data-name="Trazado 130681" d="M48.536,32.12c-.036-.1-.078-.2-.123-.293a13.7,13.7,0,0,1-.882-2.538,33.563,33.563,0,0,0-1.007-3.308,35.514,35.514,0,0,0-1.6-3.75c-.6-1.226-1.249-2.429-1.886-3.636-.255-.483-.5-.969-.758-1.453a3.852,3.852,0,0,0-.669-.935,2.929,2.929,0,0,0-1.5-.831,3.84,3.84,0,0,0-2.22.168,3,3,0,0,0-1.6,1.45c-.068.128-.124.262-.185.393a.333.333,0,0,1-.092.15c-.036,0-.08-.008-.123-.017a3.711,3.711,0,0,0-.93-.084,3.268,3.268,0,0,0-2.2.924,3.422,3.422,0,0,0-.787,1.152c-.028.066-.062.129-.1.2-.057-.007-.106-.01-.154-.019a4.312,4.312,0,0,0-.83-.086,3.182,3.182,0,0,0-2.105.771c-.111.093-.212.2-.318.3-.023.021-.048.038-.08.064a.322.322,0,0,1-.016-.059c0-.056,0-.111,0-.167q0-4.015,0-8.03,0-3.095.006-6.19c0-1.043,0-2.086-.006-3.128a3.431,3.431,0,0,0-.316-1.492A2.848,2.848,0,0,0,26.446.2.736.736,0,0,0,26.2.144.347.347,0,0,1,25.92,0H8.58c-.1.08-.2.155-.295.242A.909.909,0,0,0,8.1,1.333a.753.753,0,0,0,.522.432,1.721,1.721,0,0,0,.281.041c.089.007.178,0,.268,0h15.9a2.709,2.709,0,0,1,.631.065,1.531,1.531,0,0,1,.238.077.914.914,0,0,1,.5.493,1.5,1.5,0,0,1,.114.418,3.678,3.678,0,0,1,.029.417c0,.474,0,.948,0,1.422,0,.044,0,.087-.007.141a.655.655,0,0,1-.084.011H9.458l-4.7,0-2.593,0c-.067,0-.134,0-.2-.006-.121-.011-.146-.039-.152-.154a.822.822,0,0,1,0-.1c.026-.384.016-.769.012-1.154a3.034,3.034,0,0,1,.025-.634A1.748,1.748,0,0,1,1.9,2.6a1.086,1.086,0,0,1,.893-.76,2.942,2.942,0,0,1,.55-.032q.719,0,1.439,0a1.432,1.432,0,0,0,.348-.036A.793.793,0,0,0,5.7,1.284,1.049,1.049,0,0,0,5.782.893a.841.841,0,0,0-.22-.581,1.491,1.491,0,0,0-.291-.25A.815.815,0,0,1,5.2,0H2.421c-.036.051-.1.047-.149.063a3.591,3.591,0,0,0-.984.49,3.2,3.2,0,0,0-1.1,1.421c-.063.154-.115.314-.169.472a.347.347,0,0,0-.015.1c0,.061,0,.123,0,.184Q0,24.463,0,46.2c0,.033,0,.067,0,.1a.706.706,0,0,0,.043.261,5.309,5.309,0,0,0,.341.8,2.84,2.84,0,0,0,1.445,1.311c.144.059.29.115.434.176a1.723,1.723,0,0,1,.159.088h23.5a1.011,1.011,0,0,1,.094-.095A.176.176,0,0,1,26.1,48.8a2.111,2.111,0,0,0,1.114-.5,2.857,2.857,0,0,0,1.045-1.611,3.556,3.556,0,0,0,.113-.894c0-.033,0-.067,0-.1q0-3.957.007-7.915a.64.64,0,0,1,.023-.257,1.019,1.019,0,0,1,.106.039c.309.154.617.312.927.464.21.1.421.2.637.3a4.158,4.158,0,0,1,1.953,1.691q.075.121.145.245a4.666,4.666,0,0,0,2.753,2.2,4.5,4.5,0,0,0,1.4.208,4.328,4.328,0,0,0,1.708-.352c.65-.282,1.284-.6,1.91-.926.942-.5,1.88-1,2.819-1.5.029-.016.058-.033.086-.051a.764.764,0,0,0,.377-.8,1.033,1.033,0,0,0-.3-.619.768.768,0,0,0-.628-.214,1.348,1.348,0,0,0-.52.171q-.724.383-1.45.764l-2.534,1.326a3.256,3.256,0,0,1-1.075.353,2.862,2.862,0,0,1-2.459-.787,3.32,3.32,0,0,1-.64-.853,5.383,5.383,0,0,0-.692-1,5.318,5.318,0,0,0-1.649-1.265c-1.063-.528-2.129-1.051-3.193-1.578q-1.177-.582-2.352-1.166-2.426-1.206-4.851-2.413a2.988,2.988,0,0,1-.349-.2,2.112,2.112,0,0,1-.31-.253,1.33,1.33,0,0,1-.391-1.269,1.918,1.918,0,0,1,.525-.991,1.278,1.278,0,0,1,1.13-.375,2.105,2.105,0,0,1,.7.228q.764.4,1.525.8.99.524,1.979,1.05a1.7,1.7,0,0,0,.5.189.807.807,0,0,0,.348-.011.892.892,0,0,0,.641-1.074,1.858,1.858,0,0,0-.146-.372c-.285-.555-.576-1.108-.866-1.661q-2.012-3.846-4.024-7.691-.906-1.734-1.807-3.471a1.9,1.9,0,0,1-.211-.631,1.589,1.589,0,0,1,.363-1.264,1.759,1.759,0,0,1,1.059-.623,1.1,1.1,0,0,1,.775.134,1.615,1.615,0,0,1,.408.343,2.826,2.826,0,0,1,.37.556q1.077,2.06,2.155,4.12,1.838,3.512,3.678,7.023a2.322,2.322,0,0,0,.22.354.806.806,0,0,0,1.086.235l.029-.016a.807.807,0,0,0,.428-.985,1.771,1.771,0,0,0-.133-.342c-.318-.626-.63-1.256-.977-1.867a1.541,1.541,0,0,1-.215-.713,1.258,1.258,0,0,1,.1-.538,1.842,1.842,0,0,1,.438-.626,1.433,1.433,0,0,1,.967-.4,1.74,1.74,0,0,1,.579.067,1.027,1.027,0,0,1,.594.461c.035.057.066.117.095.177.333.694.7,1.368,1.065,2.047a1.429,1.429,0,0,0,.289.387.787.787,0,0,0,.852.174,1.154,1.154,0,0,0,.2-.094.8.8,0,0,0,.395-.955,1.921,1.921,0,0,0-.17-.417l-1-1.91c-.049-.094-.1-.186-.15-.28a.813.813,0,0,1-.076-.535,1.632,1.632,0,0,1,1.988-1.254,1.006,1.006,0,0,1,.6.4,2.073,2.073,0,0,1,.175.3c.332.7.707,1.379,1.073,2.062a1.191,1.191,0,0,0,.305.373.8.8,0,0,0,.756.145,1.046,1.046,0,0,0,.328-.162.781.781,0,0,0,.328-.85,1.491,1.491,0,0,0-.144-.391c-.37-.719-.728-1.443-1.127-2.147a1.372,1.372,0,0,1-.111-.261.866.866,0,0,1,.015-.559,1.542,1.542,0,0,1,1.286-1.1,1.819,1.819,0,0,1,.6,0,1.3,1.3,0,0,1,.826.5,2.4,2.4,0,0,1,.224.352q.6,1.123,1.185,2.249c.411.785.827,1.568,1.224,2.361a38.177,38.177,0,0,1,1.915,4.47c.3.869.56,1.751.788,2.643.155.6.317,1.208.528,1.8a9.6,9.6,0,0,0,.4.956,3.39,3.39,0,0,1,.32,1.016,2.778,2.778,0,0,1-.366,1.85,3.355,3.355,0,0,1-1.069,1.089,2.213,2.213,0,0,0-.233.163,1.621,1.621,0,0,0-.233.238.749.749,0,0,0-.1.759,1.114,1.114,0,0,0,.1.194.813.813,0,0,0,.98.374,1.651,1.651,0,0,0,.4-.177,4.741,4.741,0,0,0,2.224-3.031,2.144,2.144,0,0,0,.073-.462.362.362,0,0,1,.028-.093V33.268a.593.593,0,0,1-.029-.112,3.775,3.775,0,0,0-.252-1.036M26.589,41.273c0,.753-.013,1.506-.015,2.259,0,.7,0,1.394.005,2.091a2.566,2.566,0,0,1-.057.581,1.631,1.631,0,0,1-.073.239.945.945,0,0,1-.554.548,2.164,2.164,0,0,1-.7.123c-.039,0-.078,0-.117,0H3.333a2.719,2.719,0,0,1-.615-.059,1.713,1.713,0,0,1-.208-.063.94.94,0,0,1-.573-.572,2.026,2.026,0,0,1-.113-.589c0-.067,0-.134,0-.2,0-.736,0-1.472,0-2.209s-.007-1.495-.01-2.242a1.275,1.275,0,0,1,0-.134c.008-.079.034-.1.117-.112a.915.915,0,0,1,.1,0l2.494,0H23.275c.982,0,1.964,0,2.945-.007a1.973,1.973,0,0,1,.2.007c.113.011.148.045.161.154a1.466,1.466,0,0,1,.007.184M20.072,27.1c-.067.039-.137.075-.207.109a3.3,3.3,0,0,0-1.889,3.168,3.438,3.438,0,0,0,.365,1.38c.02.04.037.081.058.121a.17.17,0,0,1-.045.225l-.036.035A6.447,6.447,0,0,1,15.83,33.56a4.765,4.765,0,0,1-1.218.195c-.05,0-.1,0-.15,0a7.209,7.209,0,0,1-.966-.087,6.361,6.361,0,0,1-4.3-2.583,5.441,5.441,0,0,1-.978-2.41,6.013,6.013,0,0,1-.05-1.284,6.348,6.348,0,0,1,.395-1.857A6.015,6.015,0,0,1,17.73,22.8a5.933,5.933,0,0,1,2.314,3.343c.058.215.089.436.132.655a.369.369,0,0,1,.009.083.235.235,0,0,1-.112.212M23.409,12.7c0,.043,0,.085-.008.143-.068-.029-.124-.05-.178-.075a5.034,5.034,0,0,0-.962-.332A3.007,3.007,0,0,0,19.656,13a3.8,3.8,0,0,0-.94,1.012,3.033,3.033,0,0,0-.47,1.733c0,.106.012.212.017.317,0,.038,0,.076,0,.123a1.358,1.358,0,0,1-.139.017c-.117,0-.234,0-.351,0l-9.587,0c-.965,0-1.93,0-2.895,0a1.257,1.257,0,0,1-.2-.018.139.139,0,0,1-.118-.125,1.189,1.189,0,0,1-.011-.183c0-.374,0-.747,0-1.121q0-1.7,0-3.4a1.526,1.526,0,0,1,.009-.2.142.142,0,0,1,.142-.139A1.486,1.486,0,0,1,5.3,11.01l3.831,0H19.05l4.066,0a1.241,1.241,0,0,1,.15.005.14.14,0,0,1,.146.15,1.168,1.168,0,0,1,0,.117q0,.711-.006,1.422M26.586,6.81q0,.485,0,.971c0,.067,0,.134,0,.2q0,4.836,0,9.672c0,.061,0,.121,0,.176-.037.021-.05,0-.06-.018-.035-.07-.066-.142-.1-.209-.085-.15-.166-.3-.262-.447a5.637,5.637,0,0,1-.971-2.862,8.478,8.478,0,0,1,.026-1.169,10.552,10.552,0,0,0,.025-1.1c0-.273-.014-.546-.018-.819a2.369,2.369,0,0,0-.1-.71,1.739,1.739,0,0,0-1.5-1.255,2.37,2.37,0,0,0-.35-.023l-17.857,0a4.1,4.1,0,0,0-.651.03,1.82,1.82,0,0,0-1.225.712,1.719,1.719,0,0,0-.343.894c-.02.227-.025.457-.025.685q0,2.066,0,4.133c0,.212.006.424.019.635a1.738,1.738,0,0,0,1.338,1.609A2.83,2.83,0,0,0,5.283,18h9.858q1.238,0,2.477-.006c.307,0,.614-.006.92-.006.078,0,.156.008.233.015a.415.415,0,0,1,.318.193,2.626,2.626,0,0,1,.141.246q1.069,2.055,2.137,4.11,1.327,2.543,2.658,5.083a.872.872,0,0,1,.1.23l-.174-.1c-.171-.095-.34-.192-.513-.282a3.839,3.839,0,0,0-.65-.264c-.08-.025-.159-.051-.236-.083a1,1,0,0,1-.546-.538,2.9,2.9,0,0,1-.173-.575,7.431,7.431,0,0,0-.916-2.358,7.765,7.765,0,0,0-4.793-3.58,7.327,7.327,0,0,0-2.4-.227,7.9,7.9,0,0,0-7.24,6.4,7.3,7.3,0,0,0-.1,2.165,7.829,7.829,0,0,0,2.29,4.847A7.722,7.722,0,0,0,12.633,35.4a7.174,7.174,0,0,0,1.361.154A7.714,7.714,0,0,0,19.5,33.477c.049-.045.1-.089.152-.131a.258.258,0,0,1,.3-.031c.03.015.06.029.089.046,1.336.766,2.725,1.428,4.117,2.082.7.329,1.4.662,2.1.994.055.026.11.055.163.086a.322.322,0,0,1,.167.29c0,.078,0,.156,0,.234q-.041.886,0,1.773a1.71,1.71,0,0,1,0,.2c-.005.074-.029.1-.1.11a1.09,1.09,0,0,1-.166.013l-2.577-.011H6.552q-1.3,0-2.594.005c-.591,0-1.182.009-1.774.011a1.635,1.635,0,0,1-.233-.016c-.1-.014-.12-.039-.131-.142-.006-.055,0-.111,0-.167q0-.954,0-1.908,0-4.677,0-9.354,0-4.627,0-9.253,0-3.932,0-7.865,0-1.724,0-3.447c0-.067,0-.134.005-.2.009-.1.037-.128.133-.139a1.531,1.531,0,0,1,.184-.011l3.414.009c.591,0,1.183,0,1.774,0H10.12l16.1,0h.323a.174.174,0,0,1,.043.151" transform="translate(0)" fill="#eb6f2d"/>
      <path id="Trazado_130682" data-name="Trazado 130682" d="M295.819,1202.068a2.071,2.071,0,0,0-.718-.144c-.485-.01-.97-.022-1.455-.021-.937,0-1.874.012-2.811.018a2.1,2.1,0,0,0-.545.075,1.87,1.87,0,0,0-1.366,1.3,2.378,2.378,0,0,0-.064,1.19,1.859,1.859,0,0,0,1.275,1.484,2.63,2.63,0,0,0,.889.133h2.912q.477,0,.954,0a3.2,3.2,0,0,0,.582-.046,1.824,1.824,0,0,0,1.395-1.129,2.321,2.321,0,0,0,.018-1.809,1.793,1.793,0,0,0-1.066-1.047m-.525,2.031a.194.194,0,0,1-.129.161.624.624,0,0,1-.246.041h-1.972q-.952,0-1.9,0a1.336,1.336,0,0,1-.265-.022.211.211,0,0,1-.2-.231.413.413,0,0,1,0-.083.229.229,0,0,1,.22-.231,1.256,1.256,0,0,1,.2-.015h3.877a1.1,1.1,0,0,1,.2.016.244.244,0,0,1,.223.266.68.68,0,0,1-.008.1" transform="translate(-278.741 -1159.987)" fill="#eb6f2d"/>
      <path id="Trazado_130683" data-name="Trazado 130683" d="M285.059,695.37c-.054.048-.107.1-.158.149q-1.355,1.354-2.709,2.709c-.3.3-.6.611-.9.917-.2.207-.406.415-.61.62a.329.329,0,0,1-.19.123,1.455,1.455,0,0,1-.128-.114c-.4-.438-.829-.843-1.247-1.26a1.552,1.552,0,0,0-.233-.189.8.8,0,0,0-.657-.1.936.936,0,0,0-.673.639.734.734,0,0,0,.054.63,1.238,1.238,0,0,0,.215.276q.957.96,1.916,1.917a2.729,2.729,0,0,0,.338.272.744.744,0,0,0,.34.132.814.814,0,0,0,.57-.147,2.456,2.456,0,0,0,.381-.325l1.725-1.729,2.672-2.676c.15-.15.3-.3.449-.45a1.679,1.679,0,0,0,.144-.163.83.83,0,0,0,.166-.379.913.913,0,0,0-.215-.731.883.883,0,0,0-1.242-.118" transform="translate(-267.822 -670.924)" fill="#eb6f2d"/>
    </g>
  </g>
</svg>
