<svg xmlns="http://www.w3.org/2000/svg" xmlns:xlink="http://www.w3.org/1999/xlink" width="52.46" height="48.931" viewBox="0 0 52.46 48.931">
  <defs>
    <clipPath id="clip-path">
      <rect id="Rectángulo_36030" data-name="Rectángulo 36030" width="52.46" height="48.931" fill="#eb6f2d"/>
    </clipPath>
  </defs>
  <g id="Grupo_926496" data-name="Grupo 926496" opacity="0.5">
    <g id="Grupo_82682" data-name="Grupo 82682" clip-path="url(#clip-path)">
      <path id="Trazado_130684" data-name="Trazado 130684" d="M32.5,132c-.607.265-1.243.464-1.9.7v-.658c0-3.478-.005-6.955.006-10.433a1.226,1.226,0,0,0-.528-1.119q-2.917-2.063-5.817-4.15a1.381,1.381,0,0,0-.864-.267c-1.274.018-2.549.014-3.824.024-.961.008-1.211.27-1.211,1.251q0,6.746,0,13.492v.619c-1.722-.645-3.366-1.267-5.016-1.871-.266-.1-.229-.278-.229-.473q0-2.4,0-4.807c0-.975-.258-1.239-1.216-1.239-3.168,0-6.337-.019-9.5.017-.58.007-.67-.171-.655-.687q.055-1.965,0-3.932c-.015-.5.079-.663.629-.658,3.168.032,6.337.016,9.5.016.992,0,1.242-.256,1.242-1.268q0-3.55,0-7.1c0-1-.254-1.246-1.264-1.246-3.2,0-6.41-.01-9.614.011-.422,0-.511-.115-.5-.511a21.284,21.284,0,0,0-.006-2.457c-.048-.623.135-.956.756-1.107.416-.1,1.013-.226,1.144-.514s-.239-.786-.364-1.2c-.092-.3-.208-.4-.536-.25-.612.274-1.249.489-1.876.731-.744.287-.856.451-.856,1.251q0,10.979,0,21.958c0,1.383,0,1.375,1.418,1.322.257-.009.344-.067.337-.334-.019-.637.01-1.275-.013-1.911-.011-.308.079-.393.389-.391q4.425.017,8.85,0c.308,0,.4.08.391.389-.017,1.274-.02,2.549,0,3.823a.584.584,0,0,1-.426.636c-1.047.458-2.075.96-3.111,1.442-2,.933-4.006,1.864-6.087,2.832v-3.42c0-1.438,0-1.429-1.462-1.334-.254.016-.291.106-.29.324.007,1.912-.006,3.824.009,5.735a.865.865,0,0,0,1.275.836c.135-.053.265-.119.4-.18q4.984-2.319,9.964-4.646a1.25,1.25,0,0,1,1.074-.049c4.241,1.607,8.492,3.188,12.734,4.794a1.7,1.7,0,0,0,1.306.012c1.845-.712,3.7-1.386,5.557-2.076,1.224-.456,1.214-.453.762-1.659-.118-.315-.219-.431-.576-.274M1.743,110.4c0-.356.089-.452.446-.447,1.456.021,2.913.009,4.37.009s2.913.012,4.37-.009c.356-.005.451.088.447.446q-.029,2.621,0,5.243c0,.356-.089.448-.446.447q-4.37-.023-8.739,0c-.355,0-.451-.088-.447-.446q.029-2.621,0-5.243m26.679,23.142a4.5,4.5,0,0,1-4.468.049,25.95,25.95,0,0,0-3.451-1.318.5.5,0,0,1-.4-.573c.015-2.238.008-4.476.008-6.713,0-2.2.008-4.4-.008-6.6,0-.393.05-.575.515-.553a11.32,11.32,0,0,1,2.709.073,8.885,8.885,0,0,1,2.195,1.49c.991.707,1.974,1.426,2.976,2.117a.754.754,0,0,1,.361.713q-.018,5.322,0,10.643a.639.639,0,0,1-.436.676" transform="translate(0 -87.241)" fill="#eb6f2d"/>
      <path id="Trazado_130685" data-name="Trazado 130685" d="M235.923,174.292a5.2,5.2,0,0,0-.951-.634,11.709,11.709,0,0,0-1.7-.66c.2-.245.387-.467.571-.691a21.221,21.221,0,0,0,2.88-4.419,8.734,8.734,0,0,0,.793-5.877,7.86,7.86,0,0,0-15.328,3.486A15.168,15.168,0,0,0,225,171.161c.458.626.954,1.224,1.446,1.852a6.779,6.779,0,0,0-2.7,1.332,2.214,2.214,0,0,0,.02,3.548,5.147,5.147,0,0,0,1.641.949,13.331,13.331,0,0,0,7.362.456,6.8,6.8,0,0,0,3.118-1.349,2.235,2.235,0,0,0,.028-3.657m-11.782-8.309a6.118,6.118,0,1,1,11.358.309,20.884,20.884,0,0,1-4.222,6.3c-.379.418-.786.809-1.174,1.218-.137.144-.236.243-.432.043-2.277-2.32-4.442-4.73-5.53-7.871m10.483,10.744a5.538,5.538,0,0,1-1.9.793,12.776,12.776,0,0,1-3.287.332,9.453,9.453,0,0,1-3.725-.784c-.452-.208-1.06-.412-1.051-.982.009-.534.615-.7,1.036-.942.125-.071.272-.1.4-.162a2.012,2.012,0,0,1,2.8.5c.742.924,1.094.84,1.972.012a.712.712,0,0,0,.116-.115,1.666,1.666,0,0,1,2.356-.517,6.928,6.928,0,0,1,1.271.612c.641.448.643.805.01,1.252" transform="translate(-189.654 -133.276)" fill="#eb6f2d"/>
      <path id="Trazado_130686" data-name="Trazado 130686" d="M158.885,82.486q-5.44-2.069-10.862-4.183a1.577,1.577,0,0,0-1.108-.032q-6.51,2.052-13.026,4.086a1.306,1.306,0,0,1-.843-.006c-1.329-.429-2.665-.835-4-1.248-.912-.283-.912-.282-1.2.629-.234.74-.242.77.478.97.415.115.317.253.145.5-.494.719-.908,1.5-1.466,2.164a5.922,5.922,0,0,0-1.422,4.727c.1.879.3,1.168,1.192,1.168H134.8c.906,0,1.048-.1,1.379-.923l2.967-7.425c.093-.232.161-.435.471-.528,1.84-.552,3.668-1.14,5.587-1.744-.045.211-.064.333-.1.452q-.833,3.046-1.67,6.091c-.341,1.244-.337,1.226.92,1.575.37.1.482.017.576-.337.688-2.6,1.4-5.187,2.1-7.779.208-.766.209-.768.936-.489,3.115,1.2,6.225,2.4,9.347,3.578a.811.811,0,0,1,.639.922c-.043,1.434-.015,1.426,1.408,1.371.264-.01.337-.081.331-.339-.017-.673-.028-1.348,0-2.02a1.082,1.082,0,0,0-.811-1.184M134.709,89.3c-.08.2-.2.215-.373.215-2.22,0-4.44-.006-6.66,0-.26,0-.325-.07-.339-.332a2.85,2.85,0,0,1,.534-1.98c.842-1.137,1.593-2.343,2.369-3.528a.43.43,0,0,1,.566-.212c1.009.235,1.939.937,3.019.705,1.024-.22,2.014-.6,3.018-.91.068-.021.136-.046.323-.109-.848,2.115-1.66,4.129-2.458,6.148" transform="translate(-107.238 -66.792)" fill="#eb6f2d"/>
      <path id="Trazado_130687" data-name="Trazado 130687" d="M36.987,15.818a5.217,5.217,0,0,0,1.551.893,13.231,13.231,0,0,0,6.662.606,7.953,7.953,0,0,0,3.651-1.323,2.313,2.313,0,0,0-.014-4.034,5.852,5.852,0,0,0-1.09-.611,11.056,11.056,0,0,0-2.674-.725c-.384-.065-.921.081-1.112-.222s-.016-.779-.062-1.174c-.049-.427.115-.5.508-.5,2.639.018,5.279.014,7.919.008a1.96,1.96,0,0,0,2.069-2.046c.009-1.875,0-3.75,0-5.625C54.393.32,54.08,0,53.338,0c-1.529,0-3.058,0-4.588,0q-2.185,0-4.369,0a2,2,0,0,0-2.223,2.22c0,2.6-.008,5.206.009,7.809,0,.358-.071.5-.453.532a12.9,12.9,0,0,0-1.777.267,6.721,6.721,0,0,0-2.953,1.325,2.252,2.252,0,0,0,0,3.663M43.9,2.189c0-.33.107-.447.442-.445q3.987.015,7.974,0c.258,0,.339.065.337.331-.013,1.493-.016,2.986,0,4.478,0,.387-.17.448-.5.445-1.311-.012-2.622,0-3.932,0S45.6,6.984,44.292,7c-.306,0-.4-.076-.393-.388.016-1.474.014-2.949,0-4.423M38.868,13.024a9.109,9.109,0,0,1,3-.741c.209-.022.313.01.289.238a1.365,1.365,0,0,0,0,.164c.024,1.45.024,1.442,1.487,1.308.224-.021.27-.1.264-.294-.011-.382,0-.765,0-1.147,0-.18,0-.3.259-.275a9.094,9.094,0,0,1,3.2.831,3.176,3.176,0,0,1,.55.35c.475.387.482.672,0,1.051a5.668,5.668,0,0,1-2.454.99,11.017,11.017,0,0,1-2.441.236,10.035,10.035,0,0,1-4.147-.789c-.451-.208-1.06-.412-1.046-.986.013-.534.605-.729,1.041-.937" transform="translate(-30.791 0)" fill="#eb6f2d"/>
      <path id="Trazado_130688" data-name="Trazado 130688" d="M325.332,143.878c-.36,0-.448.1-.445.449.019,1.748.01,3.5.007,5.244,0,.416.143.97-.066,1.213-.248.288-.818.06-1.247.1a1.332,1.332,0,0,1-.218,0c-.167-.014-.221.065-.217.224.014.489-.128,1.058.08,1.438.146.268.773.055,1.185.086a.455.455,0,0,0,.109,0c.319-.056.387.092.383.391-.016,1.2-.007,2.4-.007,3.605,0,1.249,0,1.249-1.265,1.249-1.4,0-1.384,0-1.366,1.376,0,.325.11.388.4.378.618-.021,1.238,0,1.857-.011.259-.006.381.03.379.345-.014,2.931-.008,5.862-.008,8.8-.08.017-.1.029-.115.023-.661-.251-1.32-.507-1.982-.756-.406-.153-.905-.508-1.2-.386-.352.146-.346.789-.556,1.186-.173.326,0,.4.242.5q1.908.724,3.813,1.456c1.077.411,1.548.09,1.548-1.056q0-12.264,0-24.527c0-1.327,0-1.313-1.312-1.321" transform="translate(-274.193 -122.909)" fill="#eb6f2d"/>
      <path id="Trazado_130689" data-name="Trazado 130689" d="M258.933,189.423a3.5,3.5,0,1,0-3.511,3.495,3.5,3.5,0,0,0,3.511-3.495m-5.244,0a1.747,1.747,0,1,1,1.718,1.747,1.765,1.765,0,0,1-1.718-1.747" transform="translate(-215.223 -158.83)" fill="#eb6f2d"/>
    </g>
  </g>
</svg>
