<svg id="Grupo_926494" data-name="Grupo 926494" xmlns="http://www.w3.org/2000/svg" xmlns:xlink="http://www.w3.org/1999/xlink" width="79.016" height="48.931" viewBox="0 0 79.016 48.931">
  <defs>
    <clipPath id="clip-path">
      <rect id="Rectángulo_36026" data-name="Rectángulo 36026" width="79.016" height="48.93" fill="#eb6f2d"/>
    </clipPath>
  </defs>
  <g id="Grupo_82675" data-name="Grupo 82675" clip-path="url(#clip-path)">
    <path id="Trazado_130647" data-name="Trazado 130647" d="M52.462,27.786A5.227,5.227,0,0,1,47.536,24.3L41.419,6.955A5.218,5.218,0,1,1,51.26,3.485l6.117,17.346a5.22,5.22,0,0,1-4.915,6.955M46.342,2.517a2.72,2.72,0,0,0-.9.155,2.7,2.7,0,0,0-1.65,3.446l6.117,17.346a2.7,2.7,0,1,0,5.1-1.8L48.888,4.322a2.7,2.7,0,0,0-2.546-1.8" transform="translate(21.338 0)" fill="#eb6f2d"/>
    <path id="Trazado_130648" data-name="Trazado 130648" d="M20.5,23.478a4.328,4.328,0,0,1-3.955-6.062l4.238-9.694.975-1.956A7,7,0,0,1,29.755,2.14l6.773,1.771c1.074.217,2.2.478,3.3.732,1.163.269,2.292.53,3.358.74a11.623,11.623,0,0,0,7.2-.9l3.995-1.868a1.257,1.257,0,0,1,1.719.721L62.368,21.1A1.258,1.258,0,0,1,60,21.94l-5.8-16.457L51.454,6.761A14.1,14.1,0,0,1,42.7,7.852c-1.094-.214-2.248-.481-3.44-.756-1.078-.249-2.187-.506-3.307-.735L29.119,4.575A4.47,4.47,0,0,0,24.012,6.89l-.948,1.9-4.21,9.634a1.813,1.813,0,0,0,1.025,2.426,1.821,1.821,0,0,0,2.169-.723l5.035-7.9a1.258,1.258,0,0,1,2.122,1.352l-5.035,7.9a4.357,4.357,0,0,1-3.667,2" transform="translate(8.397 0.995)" fill="#eb6f2d"/>
    <path id="Trazado_130649" data-name="Trazado 130649" d="M5.213,28.879A5.22,5.22,0,0,1,.3,21.924L6.414,4.578a5.218,5.218,0,0,1,9.841,3.471L10.139,25.4a5.229,5.229,0,0,1-4.926,3.483M11.333,3.61a2.707,2.707,0,0,0-2.546,1.8L2.67,22.762a2.7,2.7,0,1,0,5.1,1.8L13.883,7.212a2.7,2.7,0,0,0-2.55-3.6" transform="translate(0 0.569)" fill="#eb6f2d"/>
    <path id="Trazado_130650" data-name="Trazado 130650" d="M35.167,41.424a5.063,5.063,0,0,1-2.2-.5l-4.5-2.155A1.258,1.258,0,1,1,29.562,36.5l4.5,2.154a2.575,2.575,0,0,0,2.4-4.552,1.258,1.258,0,0,1,.469-2.338l.115-.015a1.251,1.251,0,0,1,.7.114,2.582,2.582,0,0,0,2.634-4.417,1.258,1.258,0,0,1-.339-1.665l.058-.1a1.258,1.258,0,0,1,1.587-.5,2.479,2.479,0,0,0,3.2-1.323,2.554,2.554,0,0,0-.6-3.082,2.2,2.2,0,0,0-.43-.278l-16.322-7.76a1.258,1.258,0,1,1,1.081-2.272l16.327,7.763a4.672,4.672,0,0,1,.884.556,1.043,1.043,0,0,1,.09.073,5.032,5.032,0,0,1,1.239,6.088,5.139,5.139,0,0,1-3.5,2.831,5.094,5.094,0,0,1-3.727,6.742,5.075,5.075,0,0,1-4.759,6.9" transform="translate(13.917 5.368)" fill="#eb6f2d"/>
    <path id="Trazado_130651" data-name="Trazado 130651" d="M31.054,31.3a1.253,1.253,0,0,1-.608-.156l-6.9-3.809a1.258,1.258,0,0,1,1.215-2.2l6.9,3.809a1.259,1.259,0,0,1-.609,2.36" transform="translate(11.879 12.961)" fill="#eb6f2d"/>
    <path id="Trazado_130652" data-name="Trazado 130652" d="M37.78,28.912a1.261,1.261,0,0,1-.579-.141L26.165,23.044a1.257,1.257,0,0,1,1.157-2.233l11.038,5.726a1.258,1.258,0,0,1-.58,2.374" transform="translate(13.225 10.726)" fill="#eb6f2d"/>
    <path id="Trazado_130653" data-name="Trazado 130653" d="M39.987,24.27a1.246,1.246,0,0,1-.58-.143L29.8,19.112A1.259,1.259,0,0,1,30.96,16.88L40.57,21.9a1.258,1.258,0,0,1-.583,2.374" transform="translate(15.11 8.687)" fill="#eb6f2d"/>
    <path id="Trazado_130654" data-name="Trazado 130654" d="M37.8,46.338a4.132,4.132,0,0,1-2.076-.559L23.157,38.51a56.284,56.284,0,0,1-8.6-6.554c-.671-.641-1.268-1.326-1.845-1.99a11.815,11.815,0,0,0-3.56-3.153l-3.6-1.6a1.259,1.259,0,0,1-.676-1.569L11.16,5.835a1.258,1.258,0,0,1,1.713-.723L18.328,7.63A13.972,13.972,0,0,0,26.1,8.5a1.258,1.258,0,0,1,.45,2.476,16.454,16.454,0,0,1-9.293-1.066L13.074,7.975,7.639,23.387l2.57,1.141a13.9,13.9,0,0,1,4.4,3.785c.565.649,1.1,1.261,1.686,1.821a53.571,53.571,0,0,0,8.164,6.226L36.98,43.6a1.628,1.628,0,0,0,2.133-.45,1.629,1.629,0,0,0-.551-2.4l-3-1.593a1.257,1.257,0,1,1,1.18-2.221l3,1.593A4.148,4.148,0,0,1,37.8,46.338" transform="translate(2.495 2.593)" fill="#eb6f2d"/>
    <path id="Trazado_130655" data-name="Trazado 130655" d="M9.492,22.489A1.257,1.257,0,0,1,8.334,20.74l1.885-4.46a1.258,1.258,0,0,1,2.318.98l-1.886,4.461a1.258,1.258,0,0,1-1.159.767" transform="translate(4.273 8.05)" fill="#eb6f2d"/>
    <path id="Trazado_130656" data-name="Trazado 130656" d="M37.1,11.734a1.246,1.246,0,0,1-.814-.3c-2.213-1.882-1.533-5.655-1.448-6.079a1.258,1.258,0,0,1,2.468.491c-.137.7-.319,2.883.609,3.673a1.258,1.258,0,0,1-.816,2.216" transform="translate(17.994 2.255)" fill="#eb6f2d"/>
    <path id="Trazado_130657" data-name="Trazado 130657" d="M39.893,23.3a1.258,1.258,0,0,1-.633-2.345l10.122-5.886a1.258,1.258,0,0,1,1.264,2.177L40.525,23.127a1.258,1.258,0,0,1-.632.17" transform="translate(20.048 7.73)" fill="#eb6f2d"/>
  </g>
</svg>
