<svg xmlns="http://www.w3.org/2000/svg" xmlns:xlink="http://www.w3.org/1999/xlink" width="56.921" height="48.931" viewBox="0 0 56.921 48.931">
  <defs>
    <clipPath id="clip-path">
      <rect id="Rectángulo_36031" data-name="Rectángulo 36031" width="56.921" height="48.931" fill="#eb6f2d"/>
    </clipPath>
  </defs>
  <g id="Grupo_926497" data-name="Grupo 926497" opacity="0.5">
    <g id="Grupo_82683" data-name="Grupo 82683" clip-path="url(#clip-path)">
      <path id="Trazado_130690" data-name="Trazado 130690" d="M56.643,12.3A13.214,13.214,0,0,0,53.184,5.88a13.8,13.8,0,0,0-6.236-3.758A13.127,13.127,0,0,0,45,1.725a12.807,12.807,0,0,0-2.133-.1,13.234,13.234,0,0,0-1.848.206,14.3,14.3,0,0,0-2.843.818A13.538,13.538,0,0,0,30.2,11.523a13.766,13.766,0,0,0-.454,2.365,15,15,0,0,0-.07,1.894c0,.061,0,.123,0,.184a.236.236,0,0,1-.012.05.241.241,0,0,1-.162.033l-1.659-.007H19.065c-.448,0-.9.005-1.345.007-.067,0-.135-.006-.2-.011a.209.209,0,0,1-.177-.115c-.024-.043-.045-.087-.066-.132a28.888,28.888,0,0,0-5.394-7.708c-.068-.07-.134-.141-.208-.218.045-.041.079-.076.117-.1a2.188,2.188,0,0,1,1.224-.456,2.243,2.243,0,0,1,1.2.291,3.8,3.8,0,0,1,1.019.839,5.577,5.577,0,0,1,.759,1.129c.04.076.073.156.12.228a1.8,1.8,0,0,0,.2.264.59.59,0,0,0,.48.191.8.8,0,0,0,.578-.284.557.557,0,0,0,.129-.447,1.022,1.022,0,0,0-.1-.334,7.063,7.063,0,0,0-1.734-2.311,4.247,4.247,0,0,0-1.342-.789,3.685,3.685,0,0,0-1.617-.169l-.09.009a.324.324,0,0,1,.035-.081A4.125,4.125,0,0,1,14.823,4.5a4.551,4.551,0,0,1,1.646-.1,4.674,4.674,0,0,1,1.911.679A5.443,5.443,0,0,1,19.9,6.5c.054.074.1.153.161.224a1.994,1.994,0,0,0,.224.243.611.611,0,0,0,.671.1.983.983,0,0,0,.207-.118.6.6,0,0,0,.231-.7,1.714,1.714,0,0,0-.181-.381A5.712,5.712,0,0,0,19.15,3.814a6.159,6.159,0,0,0-2.374-.8,6.063,6.063,0,0,0-1.361-.024,5.8,5.8,0,0,0-3.8,1.857l-.114.12s-.011,0-.031.011a.557.557,0,0,1,.015-.086A4.633,4.633,0,0,1,12.05,3.8,5.836,5.836,0,0,1,14.4,1.787a4.616,4.616,0,0,1,1.379-.378,1.48,1.48,0,0,1,.512.035,1.67,1.67,0,0,0,.328.042A.625.625,0,0,0,17.3.949a.934.934,0,0,0,.02-.108A.629.629,0,0,0,16.834.1a3.42,3.42,0,0,0-.379-.068L16.258,0h-.664a.53.53,0,0,1-.1.029,4.636,4.636,0,0,0-1.807.532,8.28,8.28,0,0,0-1.975,1.4A6.218,6.218,0,0,0,9.88,5.323c-.05.259-.075.522-.113.783,0,.022-.009.045-.017.082-.059-.028-.108-.049-.155-.075A5.5,5.5,0,0,0,7.7,5.5a6.859,6.859,0,0,0-1.691-.017A8.014,8.014,0,0,0,2.764,6.562,6.034,6.034,0,0,0,1.392,7.639,3.737,3.737,0,0,0,.609,8.9a1.46,1.46,0,0,0-.073.265.6.6,0,0,0,.146.514.8.8,0,0,0,.53.269.584.584,0,0,0,.549-.237A1.076,1.076,0,0,0,1.883,9.5,3.932,3.932,0,0,1,3.75,7.616a7.425,7.425,0,0,1,1.506-.537A7.438,7.438,0,0,1,6.283,6.87,3.362,3.362,0,0,1,7.4,6.913c-.055.014-.109.032-.164.043A5.386,5.386,0,0,0,4.748,8.2,6.145,6.145,0,0,0,2.841,11.33a6.357,6.357,0,0,0-.178,2.21,6.15,6.15,0,0,0,.414,1.731c.041.1.079.207.127.306a1.5,1.5,0,0,0,.148.253.571.571,0,0,0,.568.228.921.921,0,0,0,.392-.151.569.569,0,0,0,.266-.5A1.338,1.338,0,0,0,4.5,15c-.081-.251-.169-.5-.237-.755A5.154,5.154,0,0,1,4.1,12.453a4.779,4.779,0,0,1,.522-1.792,5.523,5.523,0,0,1,.6-.929A3.912,3.912,0,0,1,7.368,8.365a3.272,3.272,0,0,1,.839-.1.334.334,0,0,1,.2.032c0,.064-.053.1-.087.137a4.66,4.66,0,0,0-.458.645A3.351,3.351,0,0,0,7.4,10.965a5.318,5.318,0,0,0,.249,1.317A7.131,7.131,0,0,0,8.53,14.1c.074.113.149.226.232.332a1.392,1.392,0,0,0,.215.226.587.587,0,0,0,.64.082.908.908,0,0,0,.314-.222.586.586,0,0,0,.137-.614,1.463,1.463,0,0,0-.189-.356c-.1-.153-.209-.3-.306-.46A5.177,5.177,0,0,1,8.9,11.46a2.615,2.615,0,0,1-.021-1.132,2.094,2.094,0,0,1,.637-1.117,2.61,2.61,0,0,1,.741-.474A.786.786,0,0,1,10.38,8.7a.175.175,0,0,1,.171.044c.022.021.045.041.067.063a28.564,28.564,0,0,1,4.906,6.691q.111.212.219.426a.859.859,0,0,1,.037.109c-.054.005-.1.013-.137.013-.141,0-.283,0-.424,0q-3.871,0-7.742,0a4.7,4.7,0,0,0-1.187.133,2.637,2.637,0,0,0-.99.472,2.376,2.376,0,0,0-.8,1.23,4.139,4.139,0,0,0-.16,1.182q0,3.3-.007,6.6,0,2.257,0,4.514,0,2.4.007,4.808c0,.761,0,1.523.006,2.284a2.283,2.283,0,0,1-.312,1.177q-.509.886-1.01,1.777Q1.741,42.485.461,44.754a3.031,3.031,0,0,0-.392,1.122A.173.173,0,0,1,0,46.02v.442a.26.26,0,0,1,.072.183,2.527,2.527,0,0,0,.5,1.192,2.623,2.623,0,0,0,1.747,1.022c.127.02.256.03.383.047a.307.307,0,0,1,.067.025H40.737a.96.96,0,0,1,.321-.061,2.538,2.538,0,0,0,2.2-1.946,2.656,2.656,0,0,0-.11-1.87,5.337,5.337,0,0,0-.364-.681c-.109-.178-.224-.352-.327-.533a3.1,3.1,0,0,1-.182-.381.47.47,0,0,1,.081-.5,1.489,1.489,0,0,1,.388-.335c.093-.056.127-.052.215.019.052.043.1.09.149.137a6.1,6.1,0,0,0,2.912,1.568,5.815,5.815,0,0,0,1.518.132,5.987,5.987,0,0,0,3.642-1.4c.133-.109.256-.229.384-.344.046-.041.091-.082.139-.121a.687.687,0,0,1,.081-.049.507.507,0,0,1,.207.146c.149.137.293.281.447.411a5.635,5.635,0,0,0,2.688,1.25,6.037,6.037,0,0,0,1.043.1,1.273,1.273,0,0,0,.291-.033.539.539,0,0,0,.434-.379c0-.011.015-.018.023-.027v-.553c-.006,0-.015,0-.017-.006a.617.617,0,0,0-.5-.363c-.181-.032-.365-.049-.548-.068a4.574,4.574,0,0,1-3.09-1.571c-.113-.129-.216-.268-.33-.4a2.179,2.179,0,0,0-.262-.258.574.574,0,0,0-.761-.009,1.931,1.931,0,0,0-.325.325c-.114.137-.224.278-.344.408a4.621,4.621,0,0,1-6.412.431c-.18-.148-.339-.32-.507-.482-.132-.128-.26-.261-.4-.385a1.61,1.61,0,0,0-.25-.187.612.612,0,0,0-.679,0,1.973,1.973,0,0,0-.305.236c-.17.16-.331.329-.5.494-.082.082-.165.163-.239.236-.064,0-.076-.04-.093-.07-.115-.21-.229-.42-.34-.632s-.218-.441-.339-.654-.258-.432-.4-.639a7.022,7.022,0,0,1-1.044-2.2,6.757,6.757,0,0,1-.217-2.262c.012-.159.03-.318.041-.477,0-.067,0-.135,0-.2,0-.043,0-.086,0-.128a.122.122,0,0,1,.082-.113,1.156,1.156,0,0,1,.213-.055,5.532,5.532,0,0,0,2.551-1.031,6.017,6.017,0,0,0,.722-.628.537.537,0,0,1,.208-.163.639.639,0,0,1,.211.163,6.362,6.362,0,0,0,1.305.985,5.827,5.827,0,0,0,2.24.743,5.92,5.92,0,0,0,4.536-1.335c.158-.127.3-.269.451-.407.2-.181.214-.185.4,0A5.78,5.78,0,0,0,53.947,34.1a6.167,6.167,0,0,0,1.49.4,4.645,4.645,0,0,0,.77.065,1.141,1.141,0,0,0,.272-.037.554.554,0,0,0,.408-.363c.005-.015.022-.026.033-.039v-.553a1.182,1.182,0,0,0-.15-.226.772.772,0,0,0-.341-.174,2.339,2.339,0,0,0-.309-.045,6.872,6.872,0,0,1-.948-.126A4.416,4.416,0,0,1,52.925,31.7c-.14-.146-.266-.305-.4-.458-.085-.1-.166-.2-.258-.288a1.047,1.047,0,0,0-.219-.166.5.5,0,0,0-.51,0,1.047,1.047,0,0,0-.234.177c-.1.1-.2.218-.291.332a4.987,4.987,0,0,1-2.113,1.55,4.41,4.41,0,0,1-2.027.271A4.541,4.541,0,0,1,44.1,31.808c-.171-.166-.323-.353-.482-.532-.073-.083-.139-.172-.216-.251a1.478,1.478,0,0,0-.222-.193.54.54,0,0,0-.653,0,1.215,1.215,0,0,0-.2.167,3.586,3.586,0,0,0-.24.279,4.73,4.73,0,0,1-2.776,1.752.4.4,0,0,1-.218.014.516.516,0,0,1-.027-.237c0-.411.014-.822.013-1.234,0-.988-.008-1.977-.012-2.965a1.17,1.17,0,0,1,.014-.287c.056-.034.1-.01.148,0,.265.077.529.16.8.229a13.4,13.4,0,0,0,1.862.347,12.739,12.739,0,0,0,2.262.05,13.16,13.16,0,0,0,2.413-.4,13.839,13.839,0,0,0,4.811-2.237,13.314,13.314,0,0,0,5.14-7.567,13.538,13.538,0,0,0,.358-1.991c.011-.1.007-.209.016-.312.006-.066.022-.131.033-.2v-1.99a1.188,1.188,0,0,1-.031-.177,9.551,9.551,0,0,0-.247-1.785M5.756,34.561c0-.068,0-.135,0-.2q0-7.552,0-15.1a4.094,4.094,0,0,1,.06-.788,2.25,2.25,0,0,1,.066-.249.9.9,0,0,1,.613-.611,2.136,2.136,0,0,1,.5-.1c.147-.012.294-.017.442-.017H35.978a3.185,3.185,0,0,1,.678.053,2.386,2.386,0,0,1,.335.1.885.885,0,0,1,.519.518,1.855,1.855,0,0,1,.128.572c.013.177.02.356.02.533q0,6,0,11.992c0,.97,0,1.94.007,2.91,0,.878.006,1.756.007,2.634a2.457,2.457,0,0,1-.025.292.147.147,0,0,1-.13.136,1.45,1.45,0,0,1-.219.025c-.184,0-.369,0-.553,0l-1.88,0-3.7,0-5.326-.006H21.707v.006H9.193c-1,0-1.99.005-2.986.006a2.761,2.761,0,0,1-.293-.021.154.154,0,0,1-.143-.144,1.23,1.23,0,0,1-.019-.183q0-1.17,0-2.339M41.787,46.387c.048,0,.1,0,.14,0a.214.214,0,0,1-.023.2,3.558,3.558,0,0,1-.258.445,1.168,1.168,0,0,1-.889.455c-.085.008-.172,0-.258,0l-6.469,0H19.95l-15.388,0H2.9a2.046,2.046,0,0,1-.546-.077,1.124,1.124,0,0,1-.689-.517c-.05-.084-.095-.172-.136-.261a1.556,1.556,0,0,1-.056-.166.579.579,0,0,1,.119-.048c.073-.011.147-.013.22-.017.037,0,.074,0,.111,0L23.34,46.4q3.548,0,7.1,0l10.873.007c.159,0,.319-.016.478-.023M16.256,44.91a.259.259,0,0,1,.006-.068c.1-.265.191-.531.3-.793a3.67,3.67,0,0,1,.218-.466,1.5,1.5,0,0,1,.875-.719,1.963,1.963,0,0,1,.582-.078q2.34,0,4.681-.007,1.207,0,2.414.009a2.247,2.247,0,0,1,.438.047,1.411,1.411,0,0,1,.881.59,2.038,2.038,0,0,1,.186.317c.166.356.324.715.485,1.073a.694.694,0,0,1,.026.087.315.315,0,0,1-.061.014l-10.965.007a.329.329,0,0,1-.062-.014m25.074-.22c.035.064.068.129.119.226l-.229,0H38.16l-7.667,0c-.412,0-.823,0-1.235.005-.067,0-.135,0-.2-.008a.219.219,0,0,1-.19-.126c-.031-.06-.056-.122-.081-.185-.2-.5-.41-.986-.653-1.462a3.56,3.56,0,0,0-.687-.952,2.785,2.785,0,0,0-1.669-.783,5.091,5.091,0,0,0-.57-.03q-3.492,0-6.985,0a3.309,3.309,0,0,0-1.243.225,2.792,2.792,0,0,0-1.139.85,3.988,3.988,0,0,0-.616,1.084c-.1.246-.191.492-.293.735a2.776,2.776,0,0,1-.17.326.555.555,0,0,1-.4.27,2.643,2.643,0,0,1-.366.041c-.246.008-.491.01-.737.01H2.239a.654.654,0,0,1-.219-.014.312.312,0,0,1,.07-.171q.532-.947,1.066-1.893,1.075-1.9,2.151-3.8a2.323,2.323,0,0,1,.126-.2.446.446,0,0,1,.359-.2c.08,0,.16,0,.239,0l10.947,0,20.7,0c.068,0,.135,0,.2,0a.247.247,0,0,1,.211.127c.022.037.043.074.064.112l3.176,5.8M55.55,15.879a11.706,11.706,0,0,1-.9,4.04,12.343,12.343,0,0,1-5.768,6.268,12.059,12.059,0,0,1-5.892,1.365,12.4,12.4,0,0,1-3.4-.581,2.105,2.105,0,0,1-.273-.11.4.4,0,0,1-.241-.345c-.007-.085-.012-.171-.011-.257.006-.724.015-1.449.02-2.173,0-.5,0-1.007,0-1.51h0q0-1.483,0-2.966c0-.215,0-.43,0-.645a3.644,3.644,0,0,0-.186-1.177,2.454,2.454,0,0,0-1.854-1.647,3.847,3.847,0,0,0-.9-.1q-1.65-.007-3.3-.006c-.467,0-.934.012-1.4.016a2.2,2.2,0,0,1-.238-.018.129.129,0,0,1-.119-.121,1.029,1.029,0,0,1-.015-.146c-.006-.209-.018-.417-.013-.626a13.441,13.441,0,0,1,.1-1.432,12.153,12.153,0,0,1,.746-2.88,12.29,12.29,0,0,1,6.9-6.885A12.994,12.994,0,0,1,41.527,3.2a11.645,11.645,0,0,1,2.663-.129,11.528,11.528,0,0,1,3.281.712,12.446,12.446,0,0,1,4.4,2.8,12.189,12.189,0,0,1,3.007,4.686,11.99,11.99,0,0,1,.578,2.431,12.172,12.172,0,0,1,.1,2.187" fill="#eb6f2d"/>
      <path id="Trazado_130691" data-name="Trazado 130691" d="M187.37,508.246a2.736,2.736,0,0,0,.062.38.525.525,0,0,0,.371.376.775.775,0,0,0,.179.039c.19.014.38.03.57.03q13.316,0,26.631,0c.074,0,.148,0,.221,0,.129-.008.258-.014.385-.033a.622.622,0,0,0,.564-.526.671.671,0,0,0,.018-.109c.01-.153.024-.306.024-.459q0-7.322,0-14.644c0-.049,0-.1,0-.147a2.167,2.167,0,0,0-.064-.51.582.582,0,0,0-.394-.405,1.371,1.371,0,0,0-.142-.036,3.033,3.033,0,0,0-.624-.036H188.614c-.129,0-.258,0-.387,0a2.45,2.45,0,0,0-.347.039.542.542,0,0,0-.422.321.833.833,0,0,0-.064.229,4.168,4.168,0,0,0-.029.459q0,7.4,0,14.791a2.068,2.068,0,0,0,.005.239m1.414-12c0-.743-.01-1.486-.013-2.229a1.647,1.647,0,0,1,.02-.256c.016-.1.052-.14.154-.152a2.237,2.237,0,0,1,.276-.016l2.562,0,4.184,0,12.055,0q2.166,0,4.332,0l2.249,0a2.358,2.358,0,0,1,.239.01.119.119,0,0,1,.122.115,1.079,1.079,0,0,1,.01.165q0,1.492-.005,2.984,0,.543,0,1.087,0,2.984,0,5.969c0,1.118.006,2.235.009,3.353a2.163,2.163,0,0,1-.009.239c-.01.088-.042.12-.131.124-.159.007-.319.007-.479.008-.074,0-.147,0-.221,0H201.9v0h-9.419c-1.094,0-2.187,0-3.281.006a2.27,2.27,0,0,1-.257-.013.154.154,0,0,1-.148-.14,1.714,1.714,0,0,1-.025-.237q.006-1.216.017-2.431,0-.046,0-.092,0-3.261,0-6.522,0-.986,0-1.971" transform="translate(-180.168 -473.263)" fill="#eb6f2d"/>
    </g>
  </g>
</svg>
